<?xml version="1.0" encoding="UTF-8"?>
<svg version="1.1" xmlns="http://www.w3.org/2000/svg" width="4167" height="4167">
<path d="M0 0 C1375.11 0 2750.22 0 4167 0 C4167 1375.11 4167 2750.22 4167 4167 C2791.89 4167 1416.78 4167 0 4167 C0 2791.89 0 1416.78 0 0 Z " fill="#FEFEFE" transform="translate(0,0)"/>
<path d="M0 0 C-1.87828447 5.85559335 -3.96130386 11.56239172 -6.34375 17.23046875 C-6.82545654 18.38776237 -6.82545654 18.38776237 -7.31689453 19.56843567 C-8.0112263 21.23557413 -8.70698969 22.90211693 -9.40405273 24.56811523 C-10.91922523 28.18947538 -12.42739403 31.81374059 -13.93615723 35.43777466 C-14.73518714 37.35677146 -15.53459086 39.27561266 -16.33435059 41.19430542 C-20.34773829 50.82460927 -24.32989172 60.4677164 -28.30865479 70.11236572 C-36.4683694 89.89023643 -44.65520183 109.65679047 -52.85476685 129.41816711 C-55.34228979 135.41352729 -57.82782547 141.40970884 -60.3125 147.40625 C-67.28340599 164.22854793 -74.26591827 181.04581893 -81.27774048 197.85110474 C-87.24148782 212.14800669 -93.15554444 226.46529724 -99.06488037 240.78475952 C-107.75317398 261.83798612 -107.75317398 261.83798612 -112 272 C-118.90105791 288.51541895 -125.70765903 305.07020369 -132.53761292 321.6151123 C-136.08331166 330.20350686 -139.63394042 338.78985534 -143.1875 347.375 C-143.68620605 348.57987061 -144.18491211 349.78474121 -144.69873047 351.02612305 C-145.79902487 353.68413538 -146.89942768 356.34210273 -148 359 C-148.66 359 -149.32 359 -150 359 C-151.45956474 357.13639266 -152.79690385 355.26787195 -154.125 353.3125 C-158.50603196 347.01784774 -163.0805665 340.89584601 -167.75 334.8125 C-174.68818723 325.75422055 -181.49525583 316.60844942 -188.23828125 307.40429688 C-191.36223967 303.14089021 -194.4931335 298.88259897 -197.625 294.625 C-198.20523926 293.83399902 -198.78547852 293.04299805 -199.38330078 292.22802734 C-202.18247717 288.42177481 -205.01031075 284.66054635 -208 281 C-212.20818624 282.27429357 -215.75039092 283.85759814 -219.5078125 286.1328125 C-221.08949219 287.08220703 -221.08949219 287.08220703 -222.703125 288.05078125 C-223.25935547 288.38803223 -223.81558594 288.7252832 -224.38867188 289.07275391 C-227.39972337 290.8975053 -230.42279035 292.70214608 -233.4453125 294.5078125 C-234.38301483 295.06870575 -234.38301483 295.06870575 -235.33966064 295.64093018 C-241.8408539 299.52017254 -248.41532008 303.26446488 -255 307 C-265.51468393 312.97076688 -275.93716123 319.08046546 -286.32568359 325.26806641 C-294.07868724 329.87971769 -301.88028334 334.39540571 -309.72363281 338.85131836 C-315.58856798 342.18511281 -321.41342495 345.57997411 -327.21972656 349.01464844 C-333.57648706 352.76757639 -339.97527171 356.44594974 -346.375 360.125 C-355.41755819 365.32587099 -364.41259512 370.59977964 -373.375 375.9375 C-383.11044624 381.73371579 -392.90890053 387.40327551 -402.75970459 392.99972534 C-412.51889418 398.54697397 -422.18661049 404.23631979 -431.82910156 409.98461914 C-440.08490774 414.89456873 -448.40036525 419.68940828 -456.75 424.4375 C-467.246298 430.39946266 -467.246298 430.39946266 -477.625 436.5625 C-485.28960692 441.21253834 -493.06228031 445.67015981 -500.83251953 450.14086914 C-508.23656348 454.40208654 -515.62521754 458.68835333 -523 463 C-531.25217366 467.82452537 -539.52582482 472.61000635 -547.8125 477.375 C-556.70901148 482.49278565 -565.55652935 487.68647539 -574.375 492.9375 C-584.10986571 498.73325224 -593.90786292 504.40205434 -603.75769043 509.99871826 C-612.43400682 514.93125205 -621.04894579 519.95677628 -629.625 525.0625 C-643.74542367 533.46885412 -657.97893783 541.67130419 -672.22949219 549.85449219 C-685.50191409 557.47941634 -698.72085604 565.18384512 -711.87670898 573.00830078 C-722.88943344 579.54882455 -733.98324188 585.9450778 -745.08886719 592.32617188 C-759.40184624 600.55577473 -773.66149071 608.87721677 -787.91943359 617.20166016 C-792.94553038 620.13574075 -797.97281547 623.06778365 -803 626 C-805.00000591 627.16665654 -807.0000059 628.33332322 -809 629.5 C-813 631.83333333 -817 634.16666667 -821 636.5 C-821.98983887 637.07741943 -822.97967773 637.65483887 -823.99951172 638.24975586 C-826.00109211 639.41731728 -828.00271977 640.58479764 -830.00439453 641.75219727 C-834.98060392 644.65451416 -839.95600455 647.55819916 -844.9296875 650.46484375 C-856.36078507 657.14301128 -867.81288112 663.78321653 -879.28417969 670.39208984 C-886.57622421 674.5955213 -893.855925 678.81947605 -901.125 683.0625 C-902.09203857 683.62670654 -903.05907715 684.19091309 -904.05541992 684.7722168 C-909.28483595 687.82506743 -914.50953962 690.88578229 -919.73046875 693.953125 C-920.83181152 694.59886475 -921.9331543 695.24460449 -923.06787109 695.90991211 C-925.18807209 697.15315713 -927.3069472 698.39866678 -929.42431641 699.64672852 C-930.3735498 700.20287842 -931.3227832 700.75902832 -932.30078125 701.33203125 C-933.13778564 701.82421143 -933.97479004 702.3163916 -934.8371582 702.82348633 C-937 704 -937 704 -940 705 C-943.6261998 701.47299715 -947.13924755 697.90032831 -950.4375 694.0625 C-952.85617779 691.25423653 -955.35899683 688.60029407 -958 686 C-961.27202128 682.7784145 -964.29316055 679.41407855 -967.28515625 675.93359375 C-968.96004299 674.04505403 -970.69947587 672.26844352 -972.5 670.5 C-974.93389732 668.10946833 -977.21355559 665.64953738 -979.4375 663.0625 C-981.85617779 660.25423653 -984.35899683 657.60029407 -987 655 C-990.24638776 651.80355667 -993.24071705 648.46676206 -996.20703125 645.01171875 C-998.71532103 642.19740669 -1001.39685858 639.57737713 -1004.10546875 636.95703125 C-1006 635 -1006 635 -1007.9375 632.51171875 C-1010.05028703 629.9387603 -1012.19923103 628.05528988 -1014.8125 626 C-1019.39947199 622.32188283 -1023.87987008 618.55011418 -1028.3125 614.6875 C-1029.59505118 613.57161355 -1030.87760327 612.45572814 -1032.16015625 611.33984375 C-1033.11559326 610.50815674 -1033.11559326 610.50815674 -1034.09033203 609.65966797 C-1041.13272391 603.5392154 -1048.19002801 597.43969663 -1055.4375 591.5625 C-1061.78602239 586.40548914 -1067.93093216 581.0205564 -1074.09912109 575.65087891 C-1082.04366928 568.75118267 -1090.06005266 561.93468727 -1098.1015625 555.1484375 C-1102.12903156 551.74659471 -1106.12917417 548.31391441 -1110.125 544.875 C-1114.2868418 541.29373398 -1118.48269169 537.7684187 -1122.75 534.3125 C-1127.13151795 530.75732096 -1131.31710681 527.03230463 -1135.48828125 523.234375 C-1138.88457506 520.21309963 -1142.4159298 517.37424067 -1145.94921875 514.515625 C-1149.52056499 511.57075051 -1153.01214487 508.54283024 -1156.5 505.5 C-1160.78206292 501.76584832 -1165.08331835 498.07540896 -1169.5 494.5 C-1175.82873745 489.37137869 -1181.94705834 484.00725329 -1188.09033203 478.65966797 C-1195.23391241 472.45127377 -1202.39645872 466.27176028 -1209.75 460.3125 C-1214.13151795 456.75732096 -1218.31710681 453.03230463 -1222.48828125 449.234375 C-1225.00151232 446.99865467 -1227.57311479 444.86622318 -1230.1875 442.75 C-1235.32694428 438.58915231 -1240.32326152 434.28265511 -1245.30908203 429.94067383 C-1249.89043346 425.9535878 -1254.50710443 422.01214495 -1259.15136719 418.09863281 C-1263.16384184 414.71518052 -1267.14710388 411.29899816 -1271.125 407.875 C-1275.18620876 404.38176144 -1279.27518971 400.93551293 -1283.4375 397.5625 C-1289.78602239 392.40548914 -1295.93093216 387.0205564 -1302.09912109 381.65087891 C-1310.04366928 374.75118267 -1318.06005266 367.93468727 -1326.1015625 361.1484375 C-1330.1290325 357.74659391 -1334.12909219 354.31382005 -1338.125 350.875 C-1342.1862481 347.38180518 -1346.27518779 343.93551449 -1350.4375 340.5625 C-1357.43948882 334.8812456 -1364.20872292 328.92976554 -1371 323 C-1374.73146388 324.81119013 -1378.12774931 326.99827081 -1381.5625 329.3125 C-1382.21379883 329.74908936 -1382.86509766 330.18567871 -1383.53613281 330.63549805 C-1391.24513482 335.8156067 -1398.90267892 341.07141013 -1406.56054688 346.32666016 C-1410.5378016 349.0548531 -1414.51906792 351.77717718 -1418.5 354.5 C-1420.0833533 355.58330415 -1421.66668662 356.66663751 -1423.25 357.75 C-1432.74999999 364.25 -1432.74999999 364.25 -1435.12573242 365.87548828 C-1436.70664032 366.95717066 -1438.28753229 368.03887634 -1439.8684082 369.12060547 C-1443.8637193 371.85439101 -1447.85931967 374.58775202 -1451.85546875 377.3203125 C-1461.26196856 383.7530957 -1470.66045681 390.19730604 -1480.04833984 396.65722656 C-1483.36491764 398.93908519 -1486.6825171 401.21945755 -1490 403.5 C-1491.33333808 404.41665976 -1492.66667142 405.33332642 -1494 406.25 C-1496.66666667 408.08333333 -1499.33333333 409.91666667 -1502 411.75 C-1502.6597583 412.20358887 -1503.3195166 412.65717773 -1503.99926758 413.12451172 C-1505.33502333 414.04283361 -1506.67079812 414.9611278 -1508.0065918 415.87939453 C-1511.30301745 418.14551157 -1514.59913027 420.41208059 -1517.89453125 422.6796875 C-1525.08951174 427.62983408 -1532.2911316 432.57009693 -1539.5 437.5 C-1542.66686142 439.66638214 -1545.83349985 441.83308986 -1549 444 C-1550.02843018 444.70358643 -1550.02843018 444.70358643 -1551.07763672 445.42138672 C-1559.0222731 450.85945801 -1566.93168627 456.34480362 -1574.8125 461.875 C-1581.2846497 466.41661048 -1587.78006685 470.92053556 -1594.3125 475.375 C-1601.44044459 480.23689988 -1608.54141309 485.13618198 -1615.625 490.0625 C-1616.59066895 490.73337646 -1617.55633789 491.40425293 -1618.55126953 492.09545898 C-1623.08692226 495.25228251 -1627.60867137 498.42553138 -1632.09765625 501.6484375 C-1632.87737793 502.206521 -1633.65709961 502.76460449 -1634.46044922 503.33959961 C-1635.90218889 504.37404229 -1637.34027718 505.41360112 -1638.77392578 506.45922852 C-1644.65802562 510.67867875 -1644.65802562 510.67867875 -1648 511 C-1650.31152344 509.98706055 -1650.31152344 509.98706055 -1652.859375 508.38671875 C-1653.80159912 507.80349854 -1654.74382324 507.22027832 -1655.71459961 506.61938477 C-1657.2171228 505.66310181 -1657.2171228 505.66310181 -1658.75 504.6875 C-1659.78842041 504.04031006 -1660.82684082 503.39312012 -1661.89672852 502.72631836 C-1664.93799579 500.82820411 -1667.96936022 498.915019 -1671 497 C-1672.40914437 496.12077201 -1673.81915755 495.24293314 -1675.23046875 494.3671875 C-1678.41650788 492.38853307 -1681.59371553 490.39617934 -1684.76904297 488.40039062 C-1689.34136193 485.53030729 -1693.92157491 482.67282814 -1698.5 479.8125 C-1700.56642423 478.52086211 -1702.63283029 477.22919512 -1704.69921875 475.9375 C-1708.86772314 473.33210399 -1713.03704809 470.7280285 -1717.20703125 468.125 C-1730.271535 459.96813853 -1743.31125043 451.77351435 -1756.32080078 443.52929688 C-1765.35217067 437.80622466 -1774.40266965 432.11776018 -1783.5 426.5 C-1792.57281195 420.89738036 -1801.59813246 415.22332974 -1810.60449219 409.51464844 C-1813.12092781 407.92353892 -1815.64195838 406.33991981 -1818.1640625 404.7578125 C-1819.01532715 404.22293213 -1819.8665918 403.68805176 -1820.74365234 403.13696289 C-1822.3601432 402.12149927 -1823.97758683 401.10755002 -1825.59619141 400.09545898 C-1830.18262762 397.21024845 -1834.62086144 394.19167374 -1839 391 C-1834.76854261 387.43049337 -1830.25068727 384.54100694 -1825.5625 381.625 C-1823.8486809 380.55122392 -1822.13515052 379.47698693 -1820.421875 378.40234375 C-1819.53048828 377.84401855 -1818.63910156 377.28569336 -1817.72070312 376.71044922 C-1813.23711749 373.89171259 -1808.77632073 371.03738825 -1804.3125 368.1875 C-1793.60090565 361.36021584 -1782.83320522 354.62448785 -1772.05419922 347.90429688 C-1754.88665556 337.20031282 -1737.72585886 326.48590857 -1720.671875 315.6015625 C-1710.71909979 309.25035807 -1700.73709231 302.95492622 -1690.68847656 296.75634766 C-1682.535876 291.72416185 -1674.43513716 286.61220665 -1666.34277344 281.48388672 C-1662.39776806 278.98516406 -1658.44866484 276.492934 -1654.5 274 C-1652.91664733 273.00003061 -1651.33331399 272.00003062 -1649.75 271 C-1640.25 265 -1630.75 259 -1621.25 253 C-1620.46641113 252.50508057 -1619.68282227 252.01016113 -1618.87548828 251.50024414 C-1617.29060467 250.49930788 -1615.70564361 249.49849427 -1614.12060547 248.49780273 C-1610.18535006 246.01312238 -1606.25142174 243.52639201 -1602.3203125 241.03515625 C-1593.19357477 235.25488902 -1584.03268027 229.53404402 -1574.84082031 223.85791016 C-1566.63958992 218.78852651 -1558.48660267 213.64482154 -1550.34277344 208.48388672 C-1546.39776815 205.98516411 -1542.44869342 203.49288859 -1538.5 201 C-1533.80739018 198.03705495 -1529.11523191 195.07341193 -1524.42578125 192.10546875 C-1514.60928182 185.89503034 -1504.76802588 179.72533029 -1494.91455078 173.57373047 C-1485.58864874 167.7489592 -1476.29054283 161.88094955 -1467 156 C-1456.68492177 149.47051558 -1446.35555191 142.96515431 -1436 136.5 C-1423.85797281 128.91854315 -1411.73838509 121.30275847 -1399.671875 113.6015625 C-1389.61589828 107.18467132 -1379.54208692 100.8042477 -1369.36767578 94.57617188 C-1365.43894465 92.16472827 -1361.55098296 89.72630626 -1357.75 87.1171875 C-1357.10933594 86.68253174 -1356.46867187 86.24787598 -1355.80859375 85.80004883 C-1354.1330642 84.65355054 -1352.47209508 83.48585131 -1350.8125 82.31640625 C-1348 81 -1348 81 -1345.4140625 81.5234375 C-1342.75411498 83.15039569 -1340.63842061 84.91641391 -1338.375 87.0625 C-1334.93695184 90.24737819 -1331.46100777 93.30835662 -1327.8125 96.25 C-1323.29058841 99.90846313 -1318.88224699 103.67696607 -1314.5 107.5 C-1309.3416034 111.99761026 -1304.11842371 116.38995886 -1298.80078125 120.69921875 C-1294.3200238 124.38006413 -1289.93840814 128.17513193 -1285.54296875 131.95703125 C-1282.18857372 134.84230575 -1278.81708011 137.70679062 -1275.4375 140.5625 C-1274.90527832 141.01222168 -1274.37305664 141.46194336 -1273.82470703 141.92529297 C-1272.7528666 142.83068442 -1271.68092674 143.73595817 -1270.60888672 144.64111328 C-1267.90427711 146.92546186 -1265.20227873 149.21289508 -1262.5 151.5 C-1261.41667901 152.41668126 -1260.33334568 153.33334793 -1259.25 154.25 C-1226.75 181.75 -1226.75 181.75 -1225.12451172 183.12548828 C-1224.04290479 184.04064413 -1222.96119931 184.9556835 -1221.87939453 185.87060547 C-1219.14382061 188.18443478 -1216.41007526 190.50036471 -1213.6796875 192.8203125 C-1208.69685653 197.05079624 -1203.70297285 201.2585368 -1198.625 205.375 C-1193.50186933 209.54221124 -1188.52405072 213.86312457 -1183.54736328 218.20263672 C-1179.91280797 221.36452443 -1176.24488132 224.46842941 -1172.5 227.5 C-1167.41190794 231.61893166 -1162.47996177 235.90147334 -1157.546875 240.203125 C-1153.91243501 243.36479231 -1150.24470182 246.46857472 -1146.5 249.5 C-1142.08331056 253.07541526 -1137.78219615 256.76599348 -1133.5 260.5 C-1128.34148689 264.99747977 -1123.11842906 269.38995452 -1117.80078125 273.69921875 C-1113.3200238 277.38006413 -1108.93840814 281.17513193 -1104.54296875 284.95703125 C-1101.18857372 287.84230575 -1097.81708011 290.70679062 -1094.4375 293.5625 C-1093.63916748 294.23708252 -1093.63916748 294.23708252 -1092.82470703 294.92529297 C-1091.7528666 295.83068442 -1090.68092674 296.73595817 -1089.60888672 297.64111328 C-1086.90427711 299.92546186 -1084.20227873 302.21289508 -1081.5 304.5 C-1080.41667901 305.41668126 -1079.33334568 306.33334793 -1078.25 307.25 C-1058.75 323.75 -1058.75 323.75 -1057.12451172 325.12548828 C-1056.04290479 326.04064413 -1054.96119931 326.9556835 -1053.87939453 327.87060547 C-1051.14382061 330.18443478 -1048.41007526 332.50036471 -1045.6796875 334.8203125 C-1040.69685653 339.05079624 -1035.70297285 343.2585368 -1030.625 347.375 C-1025.50186933 351.54221124 -1020.52405072 355.86312457 -1015.54736328 360.20263672 C-1011.91280797 363.36452443 -1008.24488132 366.46842941 -1004.5 369.5 C-999.41190794 373.61893166 -994.47996177 377.90147334 -989.546875 382.203125 C-985.91243501 385.36479231 -982.24470182 388.46857472 -978.5 391.5 C-974.08331056 395.07541526 -969.78219615 398.76599348 -965.5 402.5 C-960.34148689 406.99747977 -955.11842906 411.38995452 -949.80078125 415.69921875 C-945.33214488 419.37010693 -940.96220933 423.15473332 -936.578125 426.92578125 C-933.0216377 429.98463301 -929.45252738 433.02829108 -925.875 436.0625 C-925.07666748 436.7419165 -925.07666748 436.7419165 -924.26220703 437.43505859 C-922.84893099 438.6322346 -921.42488037 439.81665918 -920 441 C-919.32195313 441.63808594 -918.64390625 442.27617187 -917.9453125 442.93359375 C-917.30335938 443.28550781 -916.66140625 443.63742187 -916 444 C-912.34378827 442.78724972 -909.01828382 441.0210891 -905.6328125 439.19921875 C-904.59431152 438.64097412 -903.55581055 438.08272949 -902.48583984 437.50756836 C-901.3767627 436.9069458 -900.26768555 436.30632324 -899.125 435.6875 C-897.38984131 434.75079468 -897.38984131 434.75079468 -895.61962891 433.79516602 C-887.20240583 429.24039818 -878.85941547 424.56078005 -870.54296875 419.82470703 C-863.78280611 415.98317719 -856.97100567 412.24863939 -850.125 408.5625 C-839.82270428 403.0133108 -829.60377304 397.32583889 -819.40234375 391.59375 C-802.87252806 382.30602654 -786.27315444 373.14260991 -769.66809082 363.99029541 C-760.93591927 359.17715226 -752.21366794 354.34659517 -743.5 349.5 C-733.5672747 343.97535771 -723.62101873 338.47586248 -713.66699219 332.98974609 C-704.93519182 328.17677773 -696.21331002 323.34639609 -687.5 318.5 C-677.5672747 312.97535771 -667.62101873 307.47586248 -657.66699219 301.98974609 C-648.93519182 297.17677773 -640.21331002 292.34639609 -631.5 287.5 C-621.5672747 281.97535771 -611.62101873 276.47586248 -601.66699219 270.98974609 C-592.93519182 266.17677773 -584.21331002 261.34639609 -575.5 256.5 C-565.5672747 250.97535771 -555.62101873 245.47586248 -545.66699219 239.98974609 C-536.93519182 235.17677773 -528.21331002 230.34639609 -519.5 225.5 C-509.5672747 219.97535771 -499.62101873 214.47586248 -489.66699219 208.98974609 C-480.93519182 204.17677773 -472.21331002 199.34639609 -463.5 194.5 C-453.5672747 188.97535771 -443.62101873 183.47586248 -433.66699219 177.98974609 C-423.8406532 172.57346805 -414.02886444 167.13147105 -404.22338867 161.67749023 C-391.16705955 154.41883086 -378.08378223 147.20902243 -365 140 C-368.30862198 134.95550176 -371.65487929 130.00423369 -375.375 125.25 C-376.24017126 124.13717559 -377.10470693 123.02385686 -377.96875 121.91015625 C-378.44441406 121.2980127 -378.92007813 120.68586914 -379.41015625 120.05517578 C-389.40315149 107.13732659 -399.25054364 94.10252356 -409 81 C-409.6177832 80.17032715 -410.23556641 79.3406543 -410.87207031 78.48583984 C-412.83456554 75.84707283 -414.79296214 73.20531634 -416.75 70.5625 C-417.37148926 69.72638184 -417.99297852 68.89026367 -418.63330078 68.02880859 C-419.20290527 67.25746582 -419.77250977 66.48612305 -420.359375 65.69140625 C-420.86952148 65.00248291 -421.37966797 64.31355957 -421.90527344 63.60375977 C-423 62 -423 62 -423 61 C-397.99223608 57.09324278 -372.96380729 53.36837934 -347.90286255 49.81921387 C-342.40092751 49.04000869 -336.89950777 48.25720635 -331.39819336 47.47363281 C-330.47626725 47.34232027 -329.55434114 47.21100773 -328.60447788 47.07571602 C-326.75572466 46.8123724 -324.9069739 46.54901152 -323.05822563 46.28563309 C-320.33718601 45.89804753 -317.6161138 45.5106915 -314.89503479 45.12338257 C-301.28132655 43.18524737 -287.66955969 41.23436597 -274.0625 39.25 C-273.1445163 39.11618927 -272.22653259 38.98237854 -271.2807312 38.84451294 C-254.93815436 36.45863372 -238.61063138 33.97494281 -222.28262329 31.4916687 C-203.86840851 28.69444241 -185.43588563 26.05021225 -166.98291016 23.52148438 C-155.86376828 21.99282759 -144.76267517 20.36899494 -133.66796875 18.671875 C-120.89409343 16.7186415 -108.10979922 14.84829942 -95.31640625 13.02734375 C-94.43015186 12.90115473 -93.54389748 12.77496571 -92.6307869 12.64495277 C-86.27497762 11.74044839 -79.918781 10.83868259 -73.5625 9.9375 C-67.17896759 9.03241965 -60.79554456 8.12658287 -54.41248703 7.21815872 C-52.64940015 6.96727217 -50.88628045 6.71661611 -49.12312698 6.46619797 C-37.28422305 4.78343666 -25.45752478 3.04403651 -13.65492249 1.11985779 C-9.05138001 0.3852807 -4.68135479 -0.20486147 0 0 Z " fill="#DB9303" transform="translate(3072,2396)"/>
<path d="M0 0 C0.66 0 1.32 0 2 0 C2.77493975 29.58322666 3.54535988 59.16657007 4.3125 88.75 C4.34113853 89.85410815 4.36977705 90.9582163 4.39928341 92.09578228 C5.92925656 151.08801073 7.41273642 210.08043616 8.71206284 269.07821274 C9.65253547 311.77899106 10.71154576 354.47511752 11.90732384 397.16955185 C12.05651715 402.49972264 12.20445937 407.82992739 12.3515625 413.16015625 C12.37979221 414.18165268 12.40802193 415.20314911 12.43710709 416.25559998 C12.94823228 434.88248334 13.33461419 453.51104212 13.67056274 472.14186096 C13.86370526 482.76549384 14.09955706 493.38179667 14.5 504 C14.99514584 517.47673224 15.251941 530.95425764 15.5 544.4375 C15.77242618 559.24415558 16.08453337 574.04215875 16.61827087 588.84199524 C16.98196816 599.38467554 17.18810547 609.92829012 17.38268852 620.47527695 C17.73446675 639.36868717 18.16451977 658.2588963 18.68359375 677.1484375 C18.71360662 678.24178154 18.7436195 679.33512558 18.77454185 680.46160126 C18.9297165 686.10074226 19.08615517 691.73984741 19.24319458 697.37893677 C20.32849545 736.38806082 21.31076592 775.39752888 22.12175751 814.41330338 C22.6977517 842.11155894 23.37961408 869.80382721 24.19265747 897.49612427 C24.7209241 915.49615589 25.18241392 933.49482476 25.5 951.5 C25.85706306 971.73839119 26.40785319 991.96844369 27.00214767 1012.20089722 C27.90645924 1043.02755403 28.60292965 1073.85752171 29.24354744 1104.69071102 C29.33976166 1109.31466169 29.4371591 1113.9385868 29.53515625 1118.5625 C29.55389046 1119.44990309 29.57262466 1120.33730618 29.59192657 1121.25160027 C29.86628409 1134.13764359 30.2163188 1147.01880676 30.68666077 1159.89929199 C31.10197187 1171.59917825 31.1030286 1183.29436559 31 1195 C15.37280606 1187.38123025 1.76322685 1173.61662689 -11.38476562 1162.37695312 C-13.04834543 1160.95878654 -14.71895876 1159.54924683 -16.390625 1158.140625 C-23.26728203 1152.32459506 -29.95367113 1146.34578711 -36.49951172 1140.15893555 C-39.84004145 1137.00221487 -43.22165961 1133.90474162 -46.65649414 1130.85058594 C-51.67781261 1126.33621126 -56.49415961 1121.65103336 -61.26171875 1116.87109375 C-62.51406059 1115.620187 -62.51406059 1115.620187 -63.79170227 1114.3440094 C-65.53985281 1112.59653373 -67.28676385 1110.84781727 -69.0324707 1109.09790039 C-71.68783959 1106.43715972 -74.34852617 1103.7818207 -77.00976562 1101.12695312 C-78.71907081 1099.4169873 -80.42806586 1097.70671138 -82.13671875 1095.99609375 C-82.9222966 1095.21254013 -83.70787445 1094.42898651 -84.51725769 1093.62168884 C-88.66573793 1089.4557265 -92.66014172 1085.21305968 -96.48814392 1080.74996948 C-98.87264847 1077.98991166 -101.37993555 1075.34719419 -103.875 1072.6875 C-108.40901694 1067.8189425 -112.68492781 1062.80667836 -116.8515625 1057.6171875 C-119.01511772 1054.98158387 -121.2638956 1052.45576625 -123.5625 1049.9375 C-127.93675744 1045.12506133 -131.9903991 1040.11770878 -136 1035 C-136.84061661 1033.93968439 -137.68179149 1032.8798112 -138.5234375 1031.8203125 C-145.51332368 1023.00167703 -152.30631589 1014.04506063 -159 1005 C-159.50225098 1004.32549805 -160.00450195 1003.65099609 -160.52197266 1002.95605469 C-170.61806938 989.3677597 -179.87592593 975.25165289 -189 961 C-189.58813477 960.0831543 -190.17626953 959.16630859 -190.78222656 958.22167969 C-212.59537369 924.0609848 -231.31345432 887.77715053 -246 850 C-246.42780762 848.90381348 -246.85561523 847.80762695 -247.29638672 846.67822266 C-251.99223452 834.57801291 -256.30238245 822.44123198 -260 810 C-260.64533049 807.95817434 -261.29115488 805.9165047 -261.9375 803.875 C-281.03117767 741.12763184 -287.37044329 674.13308677 -279 609 C-278.80712402 607.43741455 -278.80712402 607.43741455 -278.61035156 605.84326172 C-273.94395853 569.32547092 -264.29034392 532.98629237 -250.83203125 498.7734375 C-249.05125971 494.21222775 -247.50136545 489.59689239 -246 484.9375 C-243.6550067 477.69657902 -240.95717421 470.64151764 -238.06640625 463.60131836 C-235.72628732 457.89242344 -233.53547275 452.13382951 -231.37937927 446.35353088 C-228.50274627 438.64895188 -225.54281705 430.97748672 -222.5625 423.3125 C-222.11754684 422.16788803 -222.11754684 422.16788803 -221.66360474 421.00015259 C-208.58367237 387.39118227 -194.92633517 353.98984232 -180.46240234 320.95166016 C-177.55125449 314.29846188 -174.71071364 307.61846714 -171.94995117 300.90136719 C-169.15574067 294.17639812 -166.04740044 287.59961178 -162.94668579 281.0123291 C-162.01646238 279.03499337 -161.08914196 277.05632472 -160.1628418 275.07714844 C-119.67901489 188.5963022 -119.67901489 188.5963022 -99.33007812 152.38671875 C-97.90061408 149.82165992 -96.50210721 147.24142803 -95.109375 144.65625 C-87.70787299 130.92345987 -79.94533654 117.42472166 -72 104 C-71.46842285 103.09942871 -70.9368457 102.19885742 -70.38916016 101.27099609 C-63.52883927 89.66502833 -56.4259091 78.25208729 -49 67 C-48.53126465 66.28666504 -48.0625293 65.57333008 -47.57958984 64.83837891 C-34.56517721 45.05030582 -21.10117589 25.70548226 -6.0078125 7.4375 C-4.59076553 5.71719395 -3.21391007 3.9633979 -1.8671875 2.1875 C-1.25101563 1.465625 -0.63484375 0.74375 0 0 Z " fill="#006634" transform="translate(2119,1578)"/>
<path d="M0 0 C2 0 2 0 3.41015625 1.3984375 C4.22806641 2.37683594 4.22806641 2.37683594 5.0625 3.375 C7.73066312 6.52178208 10.45308248 9.59207688 13.25 12.625 C17.79722451 17.66464814 21.9652243 22.94770864 26.12109375 28.30859375 C28.02387011 30.76113309 29.95201482 33.18909646 31.91015625 35.59765625 C39.0580407 44.39141179 45.79411685 53.42308644 52.34667969 62.66845703 C53.95645154 64.93858715 55.57564559 67.20176787 57.1953125 69.46484375 C68.2512307 85.00427556 78.62581241 101.00141429 89 117 C90.0223877 118.57612061 90.0223877 118.57612061 91.06542969 120.18408203 C100.38146348 134.58757796 109.27044762 149.23471748 118 164 C118.88969482 165.50481934 118.88969482 165.50481934 119.79736328 167.04003906 C127.57327343 180.22238523 135.14057004 193.51302707 142.58203125 206.88671875 C144.73957775 210.75984605 146.92093173 214.61693896 149.13671875 218.45703125 C157.81434501 233.53034905 165.74849047 248.94881366 173.63612366 264.44442749 C176.32191255 269.7072968 179.07037007 274.93495444 181.8359375 280.15625 C187.02685073 289.97350127 192.01921903 299.88650142 196.97680664 309.82324219 C198.4301258 312.73522449 199.88769873 315.64504875 201.34570312 318.5546875 C211.2515975 338.35804163 220.76489836 358.34210687 230.0625 378.4375 C230.6610379 379.73019806 230.6610379 379.73019806 231.27166748 381.04901123 C245.93045308 412.72671826 260.19425554 444.58078686 273.98571777 476.64581299 C274.98861437 478.97357353 275.99619655 481.29925496 277.00488281 483.62451172 C304.45650514 547.009165 320.26293225 612.21451573 320.1875 681.5 C320.18656342 682.61304504 320.18562683 683.72609009 320.18466187 684.87286377 C320.15581682 700.68136681 319.97744336 716.29677331 318 732 C317.83674891 733.34875592 317.67384952 734.69755444 317.51123047 736.04638672 C313.52989602 768.70498148 306.80518755 800.45630027 296.70361328 831.79492188 C295.89049544 834.34318013 295.0992895 836.89782238 294.30859375 839.453125 C293.7058747 841.38546207 293.1030109 843.31775399 292.5 845.25 C292.22744385 846.136875 291.9548877 847.02375 291.67407227 847.9375 C289.51354126 854.8085095 286.8240563 861.37837395 284 868 C283.24546326 869.83461048 282.49409376 871.67052719 281.74609375 873.5078125 C248.02118761 955.80474685 198.73263389 1030.99343794 138.9921875 1096.79296875 C137.23806619 1098.73626001 135.52027306 1100.70359448 133.8125 1102.6875 C122.52245772 1115.59088814 110.42617328 1127.73328233 98.29345703 1139.83691406 C95.60462042 1142.52033856 92.92124044 1145.20913792 90.23828125 1147.8984375 C88.50552925 1149.63052943 86.77246747 1151.36231154 85.0390625 1153.09375 C84.24932037 1153.88551636 83.45957825 1154.67728271 82.64590454 1155.49304199 C78.45725643 1159.66420318 74.19080842 1163.68076039 69.70573425 1167.53237915 C67.31404171 1169.59020137 65.00488906 1171.73420824 62.6875 1173.875 C58.09210375 1178.06885677 53.36406717 1182.04725348 48.51953125 1185.94921875 C46.27818943 1187.77356674 44.10226692 1189.64872055 41.9375 1191.5625 C39 1194 39 1194 37 1194 C37 1194.66 37 1195.32 37 1196 C36.34 1196 35.68 1196 35 1196 C34.98160568 1195.30449539 34.96321136 1194.60899078 34.94425964 1193.89241028 C34.69603761 1184.53232991 34.44321976 1175.17237819 34.1875 1165.8125 C34.1658717 1165.02074623 34.14424339 1164.22899246 34.12195969 1163.41324615 C33.56505121 1143.06685248 32.9731048 1122.72196244 32.3046875 1102.37890625 C32.27481247 1101.46951294 32.24493744 1100.56011963 32.2141571 1099.62316895 C32.0603931 1094.94816706 31.90609711 1090.27318285 31.75158691 1085.59820557 C30.38324799 1044.19072841 29.188854 1002.7802424 28.09008789 961.36474609 C26.81578576 913.3721074 25.40086846 865.3840706 23.88671875 817.3984375 C23.86292774 816.64427827 23.83913673 815.89011903 23.81462479 815.11310649 C23.6927583 811.25013009 23.57085311 807.38715492 23.44892693 803.52418041 C23.39930031 801.95182993 23.34967428 800.37947943 23.30004883 798.80712891 C23.27531502 798.02345526 23.25058121 797.23978162 23.22509789 796.43236029 C21.62192193 745.62881857 20.05829423 694.82450074 18.6328125 644.015625 C18.60490293 643.02111659 18.57699336 642.02660817 18.54823804 641.00196314 C17.97587864 620.59758691 17.40974946 600.19304161 16.85023975 579.7883091 C16.6057132 570.87186244 16.36001636 561.95544831 16.11328125 553.0390625 C16.0895081 552.17952013 16.06573495 551.31997775 16.04124141 550.43438864 C15.39136894 526.96340339 14.67462464 503.49644888 13.85651779 480.03064537 C13.1914197 460.947749 12.58498149 441.86364466 12.02734375 422.77734375 C12.00698956 422.08072954 11.98663537 421.38411534 11.96566439 420.66639161 C11.01044509 387.92990199 10.10770371 355.19189988 9.19873047 322.45410156 C6.93606651 240.09759452 6.93606651 240.09759452 4.375 157.75 C4.34628311 156.88470673 4.31756622 156.01941345 4.28797913 155.12789917 C4.20213179 152.54229555 4.11621391 149.95669428 4.03027344 147.37109375 C3.91724714 143.97005442 3.8043 140.56901248 3.69140625 137.16796875 C3.66390667 136.34071667 3.63640709 135.51346458 3.60807419 134.66114426 C2.82118971 110.94678846 2.11686669 87.22989033 1.41492462 63.51289368 C1.31388152 60.10903943 1.21198076 56.70521194 1.10980225 53.3013916 C0.95056658 47.99363574 0.79347726 42.68582067 0.63809395 37.37795067 C0.58085918 35.43251748 0.52296429 33.48710357 0.4643383 31.54171181 C0.14809273 21.02349607 -0.08690228 10.52407885 0 0 Z " fill="#005F30" transform="translate(2163,1575)"/>
<path d="M0 0 C0.31452547 52.70084614 -0.1274698 105.38518796 -0.80077482 158.08083284 C-1.00127913 173.80108455 -1.19205481 189.52145932 -1.38423618 205.24181455 C-1.43084403 209.05398429 -1.47757166 212.86615253 -1.52440426 216.67831951 C-1.9960305 255.08041968 -2.42261102 293.48292403 -2.82825979 331.88577254 C-2.85384618 334.3070056 -2.87947428 336.72823822 -2.9051166 339.14947069 C-3.11499728 358.96784143 -3.32309235 378.78623057 -3.5301174 398.60463133 C-3.65830962 410.87516379 -3.78704235 423.1456905 -3.91609001 435.41621399 C-3.92551184 436.31215793 -3.93493366 437.20810187 -3.94464099 438.13119562 C-3.98295373 441.77442221 -4.02126812 445.41764877 -4.05958527 449.06087531 C-4.41297652 482.66248873 -4.7649736 516.26411662 -5.116268 549.86575202 C-5.42419332 579.31822907 -5.73341454 608.77069226 -6.04370117 638.22314453 C-6.3981256 671.86556407 -6.75170545 705.50799233 -7.10402149 739.15043402 C-7.14192139 742.76927028 -7.17982318 746.38810652 -7.21772575 750.00694275 C-7.22704738 750.89701522 -7.23636901 751.78708769 -7.24597312 752.70413205 C-7.37425563 764.95193751 -7.50301055 777.19973791 -7.63215072 789.44753435 C-7.84816512 809.93571024 -8.06283143 830.42389987 -8.27563477 850.91210938 C-8.28372482 851.69043597 -8.29181488 852.46876256 -8.30015009 853.27067481 C-8.66109959 888.00166714 -9.00801302 922.73269908 -9.29904175 957.46435547 C-9.30771814 958.4989342 -9.30771814 958.4989342 -9.31656981 959.5544135 C-9.43061566 973.16804314 -9.54181946 986.78169398 -9.64725026 1000.39539334 C-9.92272152 1035.93348092 -10.33416816 1071.46695842 -11 1107 C-12.96835704 1103.28266936 -13.86892919 1099.58688904 -14.75 1095.5 C-16.81921805 1086.31678435 -19.5105305 1077.36817419 -22.27832031 1068.37548828 C-22.93228382 1066.22289528 -23.56333167 1064.06595428 -24.1796875 1061.90234375 C-26.73769041 1052.9255562 -29.57033673 1044.05001766 -32.5 1035.1875 C-32.86778564 1034.06657959 -33.23557129 1032.94565918 -33.61450195 1031.79077148 C-35.76875353 1025.33277964 -38.15375206 1019.03928191 -40.82128906 1012.77612305 C-41.86943241 1010.30751535 -42.87378494 1007.82914549 -43.8515625 1005.33203125 C-49.18754835 991.71817755 -54.98604591 978.32738351 -61 965 C-61.58201172 963.70980957 -61.58201172 963.70980957 -62.17578125 962.39355469 C-67.74208545 950.1447351 -74.02274642 938.34450265 -80.56396484 926.59130859 C-81.86605897 924.24169502 -83.1500749 921.88354306 -84.42578125 919.51953125 C-95.39791524 899.28634427 -107.68554686 879.76945329 -121 861 C-121.54785156 860.22688477 -122.09570312 859.45376953 -122.66015625 858.65722656 C-132.04545419 845.45574889 -141.80705214 832.59010358 -152 820 C-152.67289063 819.16339844 -153.34578125 818.32679688 -154.0390625 817.46484375 C-163.71763525 805.51620575 -173.85577282 793.97854259 -184.36083984 782.75244141 C-186.16720156 780.82124325 -187.96832755 778.88522809 -189.76953125 776.94921875 C-202.44977553 763.31866045 -202.44977553 763.31866045 -216.1015625 750.6796875 C-217.97970753 749.01795424 -219.74305516 747.28874475 -221.5 745.5 C-224.39616027 742.56505187 -227.3992918 739.82271401 -230.5234375 737.1328125 C-232.47642465 735.45090243 -234.41668465 733.75725094 -236.3515625 732.0546875 C-241.9045475 727.18263215 -247.46506869 722.33470723 -253.28588867 717.78295898 C-254.43506359 716.88093606 -255.57328686 715.96479556 -256.70043945 715.03540039 C-259.74295542 712.56462659 -262.61558528 710.63875638 -266.17578125 708.984375 C-270.99563511 706.48612982 -274.4251994 703.87616332 -277 699 C-277.99028457 693.45291164 -277.91210785 687.97228014 -277.87071228 682.35231018 C-277.88308714 680.66132849 -277.89880914 678.97036846 -277.91762632 677.27944618 C-277.95347927 673.68804992 -277.97190593 670.09715941 -277.97763705 666.50559163 C-277.99134385 661.13201151 -278.07375983 655.76128302 -278.17794991 650.38877678 C-278.19497316 649.50226693 -278.21199641 648.61575707 -278.22953551 647.70238329 C-278.26447253 645.88451955 -278.29947363 644.06665704 -278.33453692 642.24879573 C-278.42304303 637.47346722 -278.49580089 632.69790659 -278.56864929 627.9223175 C-278.58375172 626.93686 -278.59885415 625.9514025 -278.61441422 624.93608265 C-278.64561963 622.89747981 -278.6767695 620.85887611 -278.70786655 618.82027161 C-278.7915616 613.36390197 -278.87766723 607.90757022 -278.96343994 602.45123291 C-279.13008925 591.82674699 -279.29460106 581.20222907 -279.45833511 570.57769787 C-279.64950828 558.17794441 -279.8428548 545.77822511 -280.03626441 533.37850637 C-280.38123919 511.2570021 -280.7242607 489.13546798 -281.06616211 467.01391602 C-281.3973622 445.58485633 -281.72999572 424.15581954 -282.06420898 402.72680664 C-282.08506379 401.38960737 -282.10591858 400.05240809 -282.12677336 398.71520882 C-282.13708424 398.05408586 -282.14739511 397.3929629 -282.15801844 396.71180591 C-282.55025354 371.56192365 -282.94118921 346.41202138 -283.33140321 321.26210768 C-283.46536388 312.63006044 -283.59971678 303.99801936 -283.7341938 295.36598015 C-283.89785989 284.85859291 -284.06075673 274.35119406 -284.22270174 263.84378015 C-284.30524418 258.48911803 -284.38809915 253.13446126 -284.47183037 247.77981758 C-284.54853245 242.87396201 -284.62429095 237.96809277 -284.69931268 233.06221122 C-284.72652391 231.29327011 -284.75406977 229.5243341 -284.78199501 227.75540411 C-284.84322757 223.87122202 -284.9006153 219.98713887 -284.94504654 216.10272586 C-284.97580759 213.43075271 -285.03404172 210.7642228 -285.10763729 208.09256852 C-285.13135815 206.9248692 -285.15507902 205.75716988 -285.1795187 204.55408573 C-285.20749961 203.55047632 -285.23548053 202.54686691 -285.26430935 201.5128451 C-284.96754657 198.69145835 -284.41554127 197.70979927 -282.38671875 195.78125 C-280.63183594 194.60668945 -280.63183594 194.60668945 -278.6875 193.5 C-278.02395508 193.06969482 -277.36041016 192.63938965 -276.67675781 192.19604492 C-275.2368792 191.26350943 -273.78524864 190.34892493 -272.32373047 189.45068359 C-269.04009551 187.40074044 -265.86978795 185.19791063 -262.68676758 182.99609375 C-260.3689787 181.3947039 -258.03741078 179.81548093 -255.703125 178.23828125 C-251.33912933 175.26438826 -247.07888082 172.15871973 -242.81640625 169.04174805 C-238.21775717 165.70796665 -233.54583566 162.48146633 -228.875 159.25 C-222.00316989 154.48300996 -215.13921539 149.70641609 -208.3125 144.875 C-202.22154127 140.56429503 -196.11557195 136.27572014 -190 132 C-183.82313996 127.6809707 -177.65437063 123.3510172 -171.5 119 C-161.17196981 111.69946564 -150.80380306 104.45641434 -140.43847656 97.20898438 C-131.08951613 90.67149962 -121.74799345 84.1241867 -112.43286133 77.53857422 C-106.96647385 73.67626515 -101.48521397 69.83551375 -96 66 C-89.76190563 61.63757105 -83.53017314 57.26649331 -77.3125 52.875 C-76.61850098 52.38483398 -75.92450195 51.89466797 -75.20947266 51.38964844 C-71.79591195 48.97772876 -68.38378673 46.56379269 -64.97265625 44.1484375 C-55.85963728 37.70016535 -46.70687257 31.31099606 -37.5378418 24.94262695 C-31.57185984 20.79647119 -25.62012507 16.63124062 -19.6875 12.4375 C-19.00228271 11.9537793 -18.31706543 11.47005859 -17.61108398 10.97167969 C-14.66852251 8.89303945 -11.73174918 6.80750216 -8.8046875 4.70703125 C-7.89976562 4.06121094 -6.99484375 3.41539062 -6.0625 2.75 C-5.31097656 2.20859375 -4.55945312 1.6671875 -3.78515625 1.109375 C-2 0 -2 0 0 0 Z " fill="#DB9303" transform="translate(2434,764)"/>
<path d="M0 0 C1.07285893 25.88194521 1.36163925 51.77161534 1.67424965 77.67171955 C1.75037355 83.92649803 1.82995577 90.18123272 1.90905762 96.43597412 C2.04221115 107.0030265 2.17305247 117.57010566 2.30224609 128.13720703 C2.4639465 141.36275938 2.62952257 154.58826043 2.7963419 167.81374931 C3.44618347 219.34149646 4.05475426 270.86926149 4.55720782 322.398664 C4.87503803 354.95200116 5.30415543 387.5017399 5.83503902 420.05224001 C6.00841213 430.69698288 6.16454066 441.34189131 6.30932617 451.98706055 C6.31930559 452.72022472 6.329285 453.45338889 6.33956683 454.20877016 C6.43885984 461.5210555 6.53624253 468.83336497 6.63175565 476.14570063 C6.67792438 479.67542695 6.72455642 483.20514699 6.77148438 486.73486328 C6.78062878 487.42353631 6.78977319 488.11220933 6.79919469 488.82175124 C6.94484759 499.71141816 7.13091458 510.60008131 7.33406162 521.48883057 C7.49532892 530.27519528 7.61813343 539.06149293 7.70667934 547.84889221 C7.75741344 552.7663417 7.82610437 557.68175498 7.94436646 562.5980835 C8.0516843 567.06885759 8.10759388 571.53722331 8.12259674 576.00923347 C8.13686874 577.60192817 8.1696524 579.19460047 8.22386932 580.78643608 C8.51142442 589.54478915 7.48913766 595.64209074 1.61523438 602.30273438 C-0.21516927 604.24976988 -2.09714244 606.12178791 -4 608 C-5.02093526 609.21258516 -6.02372603 610.44132177 -6.98828125 611.69921875 C-8.20943394 613.2692722 -9.43074799 614.839201 -10.65356445 616.40795898 C-11.60516008 617.62947128 -12.55558325 618.85189778 -13.50488281 620.07519531 C-15.07988183 622.10283937 -16.66060866 624.12592233 -18.2421875 626.1484375 C-31.26428613 642.81829267 -44.12124594 659.5928291 -56.42333984 676.80273438 C-58.01898322 679.02645541 -59.62660505 681.24100143 -61.23828125 683.453125 C-81.20610028 710.87819099 -100.00316359 739.24687646 -118 768 C-118.52577637 768.83692383 -119.05155273 769.67384766 -119.59326172 770.53613281 C-132.55690978 791.19358858 -144.97485206 812.18035113 -156.88671875 833.4609375 C-158.88192762 837.0249173 -160.90331446 840.57099274 -162.95703125 844.1015625 C-173.61437191 862.50843832 -183.12779075 881.51018682 -192.72546387 900.48345947 C-193.93542413 902.87249652 -195.14899463 905.25965298 -196.36425781 907.64599609 C-206.81914953 928.18246105 -216.70241638 948.91414243 -226 970 C-226.35858093 970.81190796 -226.71716187 971.62381592 -227.08660889 972.46032715 C-236.66421151 994.16220824 -245.92325133 1015.9815122 -254.75 1038 C-255.1183194 1038.91591919 -255.48663879 1039.83183838 -255.86611938 1040.7755127 C-260.65719481 1052.71443415 -265.08809906 1064.73863722 -269.27288818 1076.90258789 C-270.76541833 1081.20791031 -272.34659977 1085.48027714 -273.9375 1089.75 C-274.23978516 1090.56597656 -274.54207031 1091.38195313 -274.85351562 1092.22265625 C-275.56740787 1094.14903214 -276.28342741 1096.07461953 -277 1098 C-277.33 1098 -277.66 1098 -278 1098 C-278.2913936 1019.11045843 -278.56168179 940.22085183 -278.71983337 861.33091736 C-278.72218034 860.16318217 -278.72452731 858.99544698 -278.7269454 857.79232587 C-278.77782573 832.41383265 -278.8249187 807.03533371 -278.8681106 781.65682626 C-278.88931518 769.21107627 -278.91135662 756.76532782 -278.93383789 744.31958008 C-278.93606079 743.08108355 -278.9382837 741.84258702 -278.94057396 740.56656029 C-279.01300728 700.42866684 -279.14069189 660.29118045 -279.29705275 620.15353358 C-279.45745214 578.90424667 -279.56206288 537.655185 -279.59655483 496.40559151 C-279.60145341 490.5783867 -279.60698923 484.75118266 -279.61291313 478.92397881 C-279.61405932 477.7771101 -279.61520551 476.63024139 -279.61638644 475.44861908 C-279.63646995 456.99260222 -279.71530024 438.53728212 -279.81614458 420.08154931 C-279.91629126 401.52375528 -279.95444038 382.96665144 -279.92952342 364.4085967 C-279.91660018 353.38445771 -279.95099177 342.36284625 -280.05355823 331.33916409 C-280.11743932 323.96923593 -280.11919566 316.60095729 -280.07114083 309.23091399 C-280.04553409 305.03402082 -280.04626668 300.84189465 -280.1230141 296.64551879 C-280.59505267 269.24774949 -280.59505267 269.24774949 -272.16630965 260.00011086 C-269.31939687 257.31989077 -266.37852994 254.90934724 -263.21002489 252.62015717 C-257.60924634 248.51425701 -252.55643849 243.68708849 -247.6875 238.75 C-247.22947998 238.28819336 -246.77145996 237.82638672 -246.29956055 237.35058594 C-244.86383825 235.90287278 -243.43147568 234.45191143 -242 233 C-236.50166514 227.4231709 -231.00607216 221.92226386 -225.05078125 216.828125 C-220.67208202 212.9248274 -216.61656403 208.67562521 -212.5 204.5 C-202.48287532 194.33915761 -202.48287532 194.33915761 -198.03125 190.53125 C-192.72942959 185.99066164 -187.89693613 180.96684481 -183 176 C-177.51183089 170.43348177 -172.0262412 164.94403524 -166.08203125 159.859375 C-161.52137374 155.78644259 -157.29173871 151.35300758 -153 147 C-147.51183089 141.43348177 -142.0262412 135.94403524 -136.08203125 130.859375 C-131.52137374 126.78644259 -127.29173871 122.35300758 -123 118 C-117.50166514 112.4231709 -112.00607216 106.92226386 -106.05078125 101.828125 C-101.67208202 97.9248274 -97.61656403 93.67562521 -93.5 89.5 C-83.48287532 79.33915761 -83.48287532 79.33915761 -79.03125 75.53125 C-73.72942959 70.99066164 -68.89693613 65.96684481 -64 61 C-58.51183089 55.43348177 -53.0262412 49.94403524 -47.08203125 44.859375 C-42.52137374 40.78644259 -38.29173871 36.35300758 -34 32 C-28.44056463 26.36119812 -22.88545078 20.79034627 -16.86279297 15.64013672 C-13.60619633 12.77279514 -10.59626968 9.6618647 -7.5625 6.5625 C-6.3369139 5.31156569 -5.10917305 4.06273747 -3.87890625 2.81640625 C-3.3485376 2.27443604 -2.81816895 1.73246582 -2.27172852 1.17407227 C-1 0 -1 0 0 0 Z " fill="#DB9303" transform="translate(2104,907)"/>
<path d="M0 0 C0.68900391 0.25265625 1.37800781 0.5053125 2.08789062 0.765625 C37.31102413 13.84209312 65.2733664 40.15166556 81.25390625 74.12109375 C93.13624467 100.23139176 97.02451252 134.10834761 89 162 C88.6596875 163.21429687 88.319375 164.42859375 87.96875 165.6796875 C76.85555007 201.79758726 52.1401414 231.07242223 19 249 C-14.36304788 266.51170864 -54.17217442 270.4404368 -90.31640625 259.5390625 C-124.00628957 248.79736057 -155.23629278 226.04087729 -172.3125 194.58203125 C-176.88233603 185.70707529 -181.02300242 176.53854327 -184 167 C-184.27328125 166.14921875 -184.5465625 165.2984375 -184.828125 164.421875 C-194.69399762 131.34218446 -189.70141647 94.73782482 -173.73583984 64.50634766 C-169.25636218 56.41572184 -163.97168017 49.0483626 -158 42 C-157.54254395 41.45746582 -157.08508789 40.91493164 -156.61376953 40.35595703 C-119.0308736 -3.62622362 -54.29530516 -20.3946401 0 0 Z " fill="#DA9304" transform="translate(2887,2125)"/>
<path d="M0 0 C17.33660061 14.55470929 30.1602904 33.87532983 42 53 C42.4532666 53.72928711 42.9065332 54.45857422 43.37353516 55.20996094 C46.18011811 59.73544098 48.9518791 64.280809 51.69873047 68.84277344 C52.89717084 70.82953125 54.10610695 72.8095184 55.31640625 74.7890625 C64.21032684 89.48015051 72.07254802 104.77363227 80 120 C80.35481445 120.67979919 80.70962891 121.35959839 81.07519531 122.05999756 C96.9777233 152.54929124 96.9777233 152.54929124 101 168 C101.19625977 168.73524902 101.39251953 169.47049805 101.59472656 170.22802734 C112.00090173 209.79687391 104.66307386 250.48386755 85 286 C84.29463023 287.31980911 83.59022506 288.64013415 82.88671875 289.9609375 C72.39677235 309.3932104 58.96192167 326.65924444 44.0234375 342.86328125 C43.59716064 343.33991211 43.17088379 343.81654297 42.73168945 344.30761719 C41 346 41 346 38.19604492 348.05957031 C32.47637579 352.63272695 32.47637579 352.63272695 29.51855469 359.13626099 C29.00443635 365.49406343 29.85907147 371.81076512 30.5625 378.125 C30.75430825 380.25230724 30.93986379 382.38018617 31.11962891 384.50854492 C31.50737688 389.0288667 31.92417101 393.54518549 32.36083984 398.06103516 C33.00500326 404.86096213 33.50438571 411.6653907 33.95703125 418.48046875 C34.03208389 419.60884155 34.10713654 420.73721436 34.1844635 421.89978027 C34.33725986 424.20625291 34.48966699 426.51275137 34.64169312 428.8192749 C35.03722819 434.7414878 35.4587877 440.66179909 35.8828125 446.58203125 C35.96994003 447.79862427 36.05706757 449.01521729 36.14683533 450.26867676 C36.80980274 459.47029116 37.49639973 468.67002716 38.1912117 477.86928368 C38.36634707 480.18809139 38.5411566 482.5069235 38.71591187 484.82575989 C39.22639682 491.59441566 39.73861633 498.36291524 40.25998878 505.13074207 C40.47421791 507.91931609 40.6857604 510.70808987 40.89673233 513.496912 C41.04201789 515.40496114 41.19085425 517.31273888 41.33981323 519.22050476 C41.81327953 525.502736 42.10269927 531.69998935 42 538 C37.06447564 535.30675701 32.63940651 532.38102751 28.25 528.875 C27.34483643 528.15812012 27.34483643 528.15812012 26.42138672 527.42675781 C21.58793057 523.55846292 16.99481017 519.48566566 12.45703125 515.2734375 C10.27900347 513.25815584 8.06390714 511.30727564 5.8125 509.375 C-10.25226964 495.37570074 -23.79160384 478.06338628 -35 460 C-35.38784668 459.37544922 -35.77569336 458.75089844 -36.17529297 458.10742188 C-42.80904745 447.25977303 -47.57415963 435.89576952 -52 424 C-52.4228125 422.90945313 -52.845625 421.81890625 -53.28125 420.6953125 C-69.4769789 376.40244786 -54.08218536 329.8226664 -38 288 C-37.75572266 287.36022217 -37.51144531 286.72044434 -37.25976562 286.0612793 C-35.20677647 280.69438429 -33.10895012 275.34511526 -31 270 C-30.66726074 269.15598633 -30.33452148 268.31197266 -29.99169922 267.44238281 C-3.18618297 199.81039554 -3.18618297 199.81039554 11.62768555 185.41870117 C13.80875192 181.57457654 13.13798283 177.90159933 12.83203125 173.5859375 C12.77553909 172.62199066 12.71904694 171.65804382 12.6608429 170.66488647 C12.46285032 167.44134619 12.23562412 164.2210011 12 161 C11.91941345 159.88935181 11.8388269 158.77870361 11.75579834 157.63439941 C11.16376577 149.63123298 10.51277179 141.63326538 9.85274506 133.63546371 C9.33699508 127.36056119 8.83513361 121.08452052 8.33203125 114.80859375 C8.24716461 113.75163646 8.24716461 113.75163646 8.1605835 112.67332649 C6.98520084 98.01709257 5.9099566 83.3543208 4.875 68.6875 C4.79426239 67.54404114 4.71352478 66.40058228 4.63034058 65.22247314 C4.23662253 59.63850122 3.84479843 54.05439889 3.45410156 48.47021484 C2.79641278 39.08054881 2.12330261 29.69198574 1.45074463 20.30337524 C1.13842565 15.94187723 0.82703819 11.58031277 0.515625 7.21875 C0.41439281 5.80143195 0.3131564 4.3841142 0.21191406 2.96679688 C0.14198242 1.98775391 0.07205078 1.00871094 0 0 Z " fill="#DA9203" transform="translate(2282,1996)"/>
<path d="M0 0 C12 0 12 0 15.84765625 3.2265625 C16.95724792 4.66418127 18.02777682 6.13258941 19.0625 7.625 C19.64700928 8.39900146 20.23151855 9.17300293 20.83374023 9.97045898 C22.02285903 11.54854945 23.19700658 13.13803894 24.35546875 14.73876953 C26.66849357 17.91917866 29.11483885 20.98551728 31.5625 24.0625 C32.4498941 25.1986916 33.33660647 26.33541597 34.22265625 27.47265625 C37.26483885 31.35617707 40.38052945 35.17847717 43.5 39 C48.00767214 44.52333657 52.44842767 50.09184597 56.8359375 55.7109375 C60.33776247 60.18436708 63.90811164 64.59867202 67.5 69 C72.00759973 74.52339685 76.44842642 80.09184436 80.8359375 85.7109375 C84.33777037 90.18437718 87.90854761 94.59830666 91.5 99 C95.77641563 104.24989307 100.03977966 109.5092953 104.25 114.8125 C104.71599609 115.39322266 105.18199219 115.97394531 105.66210938 116.57226562 C107.61828014 119.04929275 108.99269913 120.97809738 110 124 C113.57400074 120.50926451 116.91060254 116.88907964 120.125 113.0625 C120.60018066 112.49893799 121.07536133 111.93537598 121.56494141 111.35473633 C125.38775929 106.79191662 129.07886774 102.13420307 132.73730469 97.43920898 C136.23212792 92.95877674 139.78681573 88.53096896 143.375 84.125 C143.91737305 83.45895752 144.45974609 82.79291504 145.01855469 82.10668945 C147.23299021 79.38965686 149.44954448 76.67435641 151.66601562 73.95898438 C157.79009662 66.45320708 163.87423668 58.92374878 169.83642578 51.28857422 C173.87870909 46.12432721 178.01767594 41.04172103 182.1640625 35.9609375 C185.19857643 32.23610761 188.20627956 28.4938104 191.16381836 24.70751953 C192.05043781 23.5744999 192.94184758 22.44521163 193.83813477 21.31982422 C196.37276124 18.13084983 198.79706598 14.8944838 201.15234375 11.5703125 C202.24707004 10.08830096 203.34211651 8.60652586 204.4375 7.125 C204.91445312 6.41601562 205.39140625 5.70703125 205.8828125 4.9765625 C207.37109375 3.0078125 207.37109375 3.0078125 211 0 C214.96 0 218.92 0 223 0 C223 72.6 223 145.2 223 220 C201 220 201 220 195 217 C190.10731825 211.88492362 187.76356578 207.66083419 187.7215271 200.57731628 C187.71036362 199.5018454 187.69920013 198.42637451 187.68769836 197.3183136 C187.68553818 196.14874619 187.68337799 194.97917877 187.68115234 193.77416992 C187.66608391 191.91501953 187.66608391 191.91501953 187.65071106 190.01831055 C187.62514749 186.62818241 187.60827516 183.23822108 187.59528303 179.84803557 C187.57963278 176.30190649 187.55284861 172.75586181 187.5272522 169.20979309 C187.4804979 162.4986656 187.44373762 155.78752216 187.41057932 149.07631522 C187.37233424 141.43421269 187.32293034 133.79219499 187.27259517 126.15016401 C187.16932514 110.43350403 187.08004877 94.71679644 187 79 C186.59725483 79.51784152 186.19450966 80.03568304 185.77956009 80.56921673 C183.93801406 82.93702378 182.09644859 85.30481573 180.25488281 87.67260742 C179.62131866 88.48723198 178.98775452 89.30185654 178.33499146 90.14116669 C175.19820767 94.17425649 172.06107085 98.20706835 168.921875 102.23828125 C163.13330421 109.67275891 157.36256181 117.1198208 151.625 124.59375 C148.43371992 128.74241411 145.21572808 132.87027842 142 137 C131.92448562 149.94230066 121.95754901 162.96684182 112 176 C108.16809452 172.30693167 104.79702076 168.42342299 101.5 164.25 C100.98445557 163.60168213 100.46891113 162.95336426 99.93774414 162.28540039 C95.48566025 156.66415006 91.12788327 150.97208095 86.78491211 145.26635742 C82.97670275 140.26506442 79.1202619 135.30554375 75.22753906 130.36987305 C69.72595359 123.39218021 64.2803832 116.3710164 58.82910156 109.35400391 C55.74174548 105.38066069 52.65199866 101.4091773 49.5625 97.4375 C48.45962433 96.01953988 47.35675938 94.60157141 46.25390625 93.18359375 C45.1692716 91.7890619 44.08463607 90.39453074 43 89 C41.13895162 86.60722351 39.27790324 84.21444702 37.41685486 81.82167053 C36.94929276 81.22051926 36.48173065 80.61936798 36 80 C35.99853344 80.6359204 35.99706688 81.2718408 35.99555588 81.92703152 C35.95844326 97.42737624 35.89936987 112.92746012 35.81609726 128.42761898 C35.77635165 135.92351052 35.74393652 143.41929777 35.72900391 150.9152832 C35.71596404 157.45167 35.68894027 163.98782687 35.64538693 170.52408415 C35.62282412 173.98243678 35.60708617 177.44050638 35.60811615 180.89893913 C35.60900547 184.7674157 35.57866317 188.63531737 35.54589844 192.50366211 C35.55344398 194.20838936 35.55344398 194.20838936 35.56114197 195.94755554 C35.45742585 203.88043081 34.34323556 210.65676444 28.5625 216.4375 C18.68633012 222.4595548 14.07276619 220 0 220 C0 147.4 0 74.8 0 0 Z " fill="#026735" transform="translate(2793,1730)"/>
<path d="M0 0 C0.66 0 1.32 0 2 0 C2.13368233 0.89272362 2.13368233 0.89272362 2.27006531 1.80348206 C6.20004029 28.03784475 10.1469691 54.26495165 14.42333984 80.4453125 C15.47008178 86.89770987 16.48854986 93.35449364 17.5 99.8125 C17.60306458 100.46996216 17.70612915 101.12742432 17.81231689 101.80480957 C19.58099714 113.10923971 21.23856539 124.42862424 22.87988281 135.75213623 C24.12723226 144.33804216 25.45571629 152.8990703 27 161.4375 C28.8314402 171.56710632 30.268035 181.74111896 31.68798828 191.93429565 C33.2794077 203.32281401 35.06706946 214.66469689 37 226 C39.00919901 237.79125361 40.85111176 249.59044441 42.5 261.4375 C44.17999429 273.50669164 46.01926901 285.53897438 48 297.5625 C49.92708159 309.27805805 51.79969501 320.99900689 53.54052734 332.74386597 C53.76128062 334.23292336 53.98326046 335.7217995 54.20654297 337.21047974 C54.51402283 339.26476227 54.81646921 341.31971812 55.1171875 343.375 C55.28847168 344.53773438 55.45975586 345.70046875 55.63623047 346.8984375 C55.95769241 349.63927814 56.07287475 352.24494755 56 355 C41.98022408 349.99675936 29.46678473 339.2161891 18 330 C17.10764648 329.28553711 17.10764648 329.28553711 16.19726562 328.55664062 C0.47593437 315.84692128 -14.15853324 301.40804242 -26 285 C-26.76183594 283.97132813 -27.52367187 282.94265625 -28.30859375 281.8828125 C-42.61810728 261.99333269 -52.69458829 240.15488476 -57 216 C-57.22429687 214.85789062 -57.44859375 213.71578125 -57.6796875 212.5390625 C-60.88324974 194.06372408 -59.04293208 176.14194593 -55 158 C-54.74798828 156.85466797 -54.49597656 155.70933594 -54.23632812 154.52929688 C-44.71877086 111.64322947 -32.92617205 68.76809655 -14.875 28.625 C-14.5912149 27.99031799 -14.30742981 27.35563599 -14.01504517 26.70172119 C-9.86642292 17.47216824 -5.15098389 8.70281156 0 0 Z " fill="#016634" transform="translate(1545,2178)"/>
<path d="M0 0 C3.49396754 1.49854698 5.76693254 3.50927275 8.44921875 6.18359375 C9.29282959 7.0230957 10.13644043 7.86259766 11.00561523 8.72753906 C11.89063721 9.62182617 12.77565918 10.51611328 13.6875 11.4375 C15.04887085 12.80793457 15.04887085 12.80793457 16.43774414 14.20605469 C22.37002254 20.2267466 27.83803864 26.30856861 33 33 C33.96999306 34.18554708 34.94430668 35.36756647 35.921875 36.546875 C49.83065387 53.34573478 62.25483523 71.03697546 74.20898438 89.26855469 C75.75298517 91.62328218 77.30469485 93.97263363 78.859375 96.3203125 C121.93589982 161.73191885 121.93589982 161.73191885 123 198 C123.02578125 198.74668945 123.0515625 199.49337891 123.078125 200.26269531 C123.62301057 218.10088673 122.20529858 235.8494744 117 253 C116.6918335 254.05646729 116.6918335 254.05646729 116.37744141 255.13427734 C107.05609596 286.71787579 90.3512986 316.25774108 69.171875 341.41796875 C65.98409002 345.20776348 62.9245963 349.1003768 59.84765625 352.98046875 C59.23792969 353.64691406 58.62820313 354.31335937 58 355 C57.34 355 56.68 355 56 355 C55.84144531 353.97648437 55.68289063 352.95296875 55.51953125 351.8984375 C54.30614021 344.12060986 53.06453723 336.34871775 51.7578125 328.5859375 C51.54020264 327.29252441 51.32259277 325.99911133 51.09838867 324.66650391 C50.66849856 322.11892459 50.23648361 319.57170261 49.80200195 317.02490234 C48.77160814 310.91738846 47.824284 304.81550735 47.03515625 298.671875 C45.93918897 290.23528444 44.47969049 281.8757789 43 273.5 C41.31251356 263.94799341 39.75888185 254.41982503 38.52294922 244.79638672 C37.65874798 238.52265687 36.5537859 232.2925244 35.45675659 226.05599976 C33.54945246 215.20256965 31.68765434 204.35002385 30.11352539 193.44262695 C29.02017397 185.94320493 27.75887415 178.47312636 26.5 171 C24.95019763 161.78804783 23.44936637 152.57490374 22.09155273 143.33276367 C21.13190812 136.81777592 20.10680264 130.31443209 19.0625 123.8125 C18.80581543 122.21426392 18.80581543 122.21426392 18.54394531 120.58374023 C17.87863139 116.44737251 17.2117066 112.31126626 16.54394531 108.17529297 C16.09082028 105.36701806 15.63878408 102.55857133 15.1875 99.75 C15.02886475 98.76273926 14.87022949 97.77547852 14.70678711 96.75830078 C13.58402037 89.7366208 12.48795013 82.71110128 11.40234375 75.68359375 C10.96080276 72.82734441 10.51921619 69.97110212 10.07757568 67.11486816 C9.77634069 65.16640794 9.47527407 63.21792168 9.17437744 61.26940918 C7.57547536 50.92682896 5.95198049 40.58989986 4.21484375 30.26953125 C4.07401367 29.43254196 3.93318359 28.59555267 3.78808594 27.73320007 C3.12533572 23.80546034 2.45581199 19.87899608 1.77783203 15.95385742 C1.54066757 14.56299212 1.30352436 13.1721232 1.06640625 11.78125 C0.85959229 10.58564453 0.65277832 9.39003906 0.43969727 8.15820312 C0.0530361 5.38094113 -0.08979809 2.79722687 0 0 Z " fill="#016634" transform="translate(1559,2176)"/>
<path d="M0 0 C2.83203125 0.03255208 5.6640625 0.06510417 8.49609375 0.09765625 C14.85574578 12.01016702 20.97001147 24.0118299 26.85265732 36.16641808 C37.34665497 57.82674747 48.08934493 79.36095684 58.87066936 100.87918615 C60.11253001 103.35787556 61.35410068 105.83671002 62.59558868 108.31558609 C69.83289553 122.76583817 77.074717 137.21382652 84.32084286 151.65965825 C88.60351344 160.1975759 92.88393309 168.7366132 97.15995133 177.27786475 C99.56406056 182.07957901 101.97174054 186.87947955 104.3821857 191.67801607 C105.86520054 194.63234345 107.34488886 197.58832721 108.82362556 200.5447979 C109.50876413 201.9129259 110.19528195 203.28036418 110.88327217 204.64706039 C111.82032021 206.50899066 112.75241943 208.37331704 113.68331909 210.23832703 C114.20560026 211.27974696 114.72788143 212.3211669 115.2659893 213.39414501 C116.29667037 215.65936554 117.01393827 217.66786639 117.49609375 220.09765625 C113.19111605 220.17216989 108.88648641 220.22642848 104.58105469 220.26245117 C103.118423 220.27747821 101.65583593 220.2979058 100.19335938 220.32397461 C98.08322095 220.36062892 95.97368149 220.37744301 93.86328125 220.390625 C91.96231689 220.41419067 91.96231689 220.41419067 90.02294922 220.43823242 C83.58872286 219.81690155 79.68585137 216.85359733 75.49609375 212.09765625 C69.36037384 201.8714564 64.66964689 190.84272815 59.49609375 180.09765625 C22.20609375 180.09765625 -15.08390625 180.09765625 -53.50390625 180.09765625 C-58.45390625 190.32765625 -63.40390625 200.55765625 -68.50390625 211.09765625 C-75.26929298 217.86304298 -78.53011924 220.40430591 -87.96875 220.48828125 C-90.79418786 220.47709652 -93.6168398 220.41518846 -96.44140625 220.34765625 C-97.9029704 220.32756602 -99.36456111 220.30931969 -100.82617188 220.29296875 C-104.38597399 220.24915961 -107.94476879 220.18027171 -111.50390625 220.09765625 C-108.51915982 213.75704413 -105.51477683 207.42590198 -102.50390625 201.09765625 C-101.83572876 199.69240944 -101.83572876 199.69240944 -101.15405273 198.2587738 C-89.06897503 172.90178729 -76.40950196 147.82979204 -63.81640625 122.72265625 C-59.99527992 115.10430671 -56.17560959 107.48523358 -52.35933495 99.86445236 C-50.86188475 96.87587186 -49.3619721 93.88853705 -47.8618927 90.90127563 C-42.56760388 80.34070738 -37.38512235 69.7339942 -32.30691433 59.06777954 C-28.93826614 51.99281447 -25.50638447 44.95520755 -21.99609375 37.94921875 C-21.45912872 36.87433197 -20.9221637 35.79944519 -20.368927 34.69198608 C-19.26288073 32.47922642 -18.15586799 30.26694956 -17.04785156 28.05517578 C-15.34265825 24.6502769 -13.6418864 21.24319229 -11.94140625 17.8359375 C-10.85572604 15.66523588 -9.76979855 13.49465792 -8.68359375 11.32421875 C-8.17641815 10.30784332 -7.66924255 9.2914679 -7.146698 8.24429321 C-6.68175934 7.31756805 -6.21682068 6.3908429 -5.73779297 5.43603516 C-5.32906952 4.61938385 -4.92034607 3.80273254 -4.49923706 2.96133423 C-2.97974981 0.11621489 -2.97974981 0.11621489 0 0 Z " fill="#DB9405" transform="translate(1200.50390625,1724.90234375)"/>
<path d="M0 0 C17.66717626 0.92985138 34.85692428 9.56698989 48 21 C49.03125 21.78375 50.0625 22.5675 51.125 23.375 C66.28747804 37.21900169 76.40694059 58.22249331 77.3515625 78.71875 C77.59355272 88.80523059 77.41058975 98.40310243 74 108 C73.73316406 108.87914063 73.46632813 109.75828125 73.19140625 110.6640625 C66.69596969 130.6988757 52.5204723 148.35945666 33.88671875 158.25390625 C11.95639574 169.28260863 -14.21060076 173.55121426 -37.96582031 165.73193359 C-61.78286916 157.16214093 -79.92192867 141.1557367 -91.21337891 118.43579102 C-100.04808669 99.51271335 -101.08965066 76.63445038 -94 57 C-91.9329184 52.18986081 -89.54493421 47.57516263 -87 43 C-86.319375 43.27714844 -85.63875 43.55429688 -84.9375 43.83984375 C-81.64474269 45.14030774 -78.32994538 46.36041843 -75 47.5625 C-73.80375 47.99691406 -72.6075 48.43132813 -71.375 48.87890625 C-56.8434903 53.70592394 -42.36503222 50.86806314 -28.875 44.4375 C-15.85944908 37.86835938 -7.51288958 27.54407512 -2.6875 13.875 C-1.24137118 9.2305863 -0.3726438 4.84436936 0 0 Z " fill="#006633" transform="translate(2849,2202)"/>
<path d="M0 0 C0.33 0 0.66 0 1 0 C1.73835092 3.39414634 2.19296768 6.67760269 2.41723633 10.14257812 C2.48447906 11.15422531 2.5517218 12.1658725 2.6210022 13.20817566 C2.69064178 14.30479019 2.76028137 15.40140472 2.83203125 16.53125 C2.90859955 17.69123001 2.98516785 18.85121002 3.0640564 20.04634094 C3.22957223 22.55462302 3.393747 25.06299387 3.55673218 27.57144165 C3.99018319 34.22918918 4.43597583 40.88610889 4.8828125 47.54296875 C4.9511369 48.56250421 4.9511369 48.56250421 5.0208416 49.60263634 C5.93222003 63.18545009 6.90694724 76.76323781 7.92660522 90.33837891 C8.09988134 92.64575433 8.27211023 94.95320865 8.44326782 97.26074219 C8.68185825 100.47223761 8.92423398 103.68342264 9.16796875 106.89453125 C9.23760834 107.83565262 9.30724792 108.77677399 9.3789978 109.74641418 C9.72400139 114.222186 10.25056565 118.57175948 11 123 C11.30558767 125.96728693 11.53087547 128.93956341 11.75390625 131.9140625 C11.81907944 132.76495453 11.88425262 133.61584656 11.95140076 134.49252319 C12.08806413 136.28934279 12.22329473 138.08627187 12.35717773 139.88330078 C12.56031394 142.59580924 12.77110322 145.30764957 12.98242188 148.01953125 C13.66841485 157.0259451 14.2393684 165.95950636 14 175 C14.99 175.33 15.98 175.66 17 176 C17.585576 184.24984191 18.16843764 192.49987423 18.75 200.75 C18.83958984 202.02049194 18.92917969 203.29098389 19.02148438 204.59997559 C20.04668574 219.15865295 21.05659409 233.71803704 22.015625 248.28125 C22.09731934 249.5217662 22.17901367 250.76228241 22.26318359 252.04039001 C22.59082528 257.02105047 22.9181057 262.0017345 23.24487305 266.98245239 C24.61435979 287.80529396 26.13695451 308.61404671 27.78125 329.41699219 C27.86324646 330.47008072 27.94524292 331.52316925 28.02972412 332.60816956 C28.18093371 334.54943267 28.33486143 336.49048711 28.49224854 338.43125916 C28.9215475 343.97301058 29.06622873 349.44136627 29 355 C24.06447564 352.30675701 19.63940651 349.38102751 15.25 345.875 C14.34483643 345.15812012 14.34483643 345.15812012 13.42138672 344.42675781 C8.58793057 340.55846292 3.99481017 336.48566566 -0.54296875 332.2734375 C-2.72099653 330.25815584 -4.93609286 328.30727564 -7.1875 326.375 C-23.25226964 312.37570074 -36.79160384 295.06338628 -48 277 C-48.38784668 276.37544922 -48.77569336 275.75089844 -49.17529297 275.10742188 C-55.80904745 264.25977303 -60.57415963 252.89576952 -65 241 C-65.4228125 239.90945312 -65.845625 238.81890625 -66.28125 237.6953125 C-82.4769789 193.40244786 -67.08218536 146.8226664 -51 105 C-50.75572266 104.36022217 -50.51144531 103.72044434 -50.25976562 103.0612793 C-48.20677647 97.69438429 -46.10895012 92.34511526 -44 87 C-43.66726074 86.15598633 -43.33452148 85.31197266 -42.99169922 84.44238281 C-18.74299813 23.26139946 -18.74299813 23.26139946 0 0 Z " fill="#FCFCFC" transform="translate(2295,2179)"/>
<path d="M0 0 C4.09773674 3.50091923 8.01957163 7.17344072 11.875 10.9375 C12.38828857 11.43290283 12.90157715 11.92830566 13.43041992 12.4387207 C16.30011087 15.31518321 18.11128705 17.79244261 19.3125 21.6875 C17.29535723 22.96451821 15.2741067 24.23410194 13.25 25.5 C12.68861328 25.85642578 12.12722656 26.21285156 11.54882812 26.58007812 C5.38654405 30.41830077 -1.18621421 34.33643129 -8.6875 32.6875 C-13.84543413 30.3676636 -18.17913756 27.27282802 -22.25 23.375 C-36.11643438 10.84508941 -55.13560761 5.59829793 -73.5 6.37890625 C-94.25727778 7.73159527 -112.40926737 16.3722063 -126.859375 31.5859375 C-141.53949519 48.46180217 -147.96245022 67.77403502 -148.125 89.875 C-148.1353125 91.03870117 -148.145625 92.20240234 -148.15625 93.40136719 C-147.93098089 115.53405743 -139.26409681 136.03353599 -123.6875 151.6875 C-122.95015625 152.45964844 -122.2128125 153.23179687 -121.453125 154.02734375 C-112.64676542 162.67116985 -100.63212663 168.63243203 -88.6875 171.6875 C-87.9965625 171.88988281 -87.305625 172.09226562 -86.59375 172.30078125 C-67.02478722 177.22653044 -45.20634962 172.57523721 -27.75390625 163.09375 C-10.56404228 152.60340306 -1.38423303 138.9776535 3.3125 119.6875 C3.65623104 117.68926075 3.9912813 115.68948143 4.3125 113.6875 C3.43633026 113.69638245 2.56016052 113.70526489 1.65744019 113.7144165 C-6.61110967 113.79465922 -14.87952822 113.85551356 -23.14837837 113.89474869 C-27.39921849 113.91559828 -31.6497361 113.94386734 -35.90039062 113.98925781 C-40.00473055 114.03281017 -44.10876083 114.05665688 -48.21331406 114.06700897 C-49.77699532 114.07438357 -51.34066017 114.08878466 -52.90420914 114.11042023 C-55.09943126 114.13958062 -57.29338401 114.14345097 -59.48876953 114.14160156 C-60.73675323 114.15048401 -61.98473694 114.15936646 -63.27053833 114.16851807 C-68.68832202 113.40583704 -71.71443157 110.94985905 -75 106.6875 C-79.49581531 98.69493945 -77.6875 92.97662272 -77.6875 82.6875 C-39.0775 82.6875 -0.4675 82.6875 39.3125 82.6875 C39.3125 114.77222942 36.84405463 142.8894061 15.3125 167.6875 C14.64734375 168.49574219 13.9821875 169.30398438 13.296875 170.13671875 C-3.56012331 189.93459626 -28.2748449 200.51195506 -53.6875 203.6875 C-71.03990824 204.53358891 -89.04767798 205.25144049 -105.6875 199.6875 C-106.32558594 199.47851074 -106.96367188 199.26952148 -107.62109375 199.05419922 C-134.8732501 189.90389018 -158.42153957 169.41904972 -171.33325195 143.79321289 C-185.40736518 114.62307447 -188.10205523 82.2620253 -177.71801758 51.42480469 C-172.75876657 37.69875804 -165.35237954 25.59101934 -155.6875 14.6875 C-155.07648438 13.93339844 -154.46546875 13.17929688 -153.8359375 12.40234375 C-139.36092319 -5.06006714 -116.62986668 -17.57921805 -94.6875 -22.3125 C-93.76453125 -22.51746094 -92.8415625 -22.72242188 -91.890625 -22.93359375 C-59.20109999 -29.07346568 -25.99636689 -20.48646836 0 0 Z " fill="#DB9305" transform="translate(1753.6875,1745.3125)"/>
<path d="M0 0 C12 0 12 0 14.90356445 1.52539062 C15.550271 2.22857422 16.19697754 2.93175781 16.86328125 3.65625 C17.60513672 4.43226562 18.34699219 5.20828125 19.11132812 6.0078125 C19.83771484 6.83023437 20.56410156 7.65265625 21.3125 8.5 C22.05822266 9.29148437 22.80394531 10.08296875 23.57226562 10.8984375 C27.0081903 14.57225705 30.31275612 18.35435501 33.60546875 22.15625 C36.90447405 25.94923159 40.40934321 29.48489413 44 33 C48.19070606 37.14263748 52.22690628 41.30939927 56.03125 45.8125 C58.89838676 48.99820751 61.95431879 51.98584758 65 55 C69.18844192 59.14508331 73.22670717 63.30916359 77.03125 67.8125 C79.89838676 70.99820751 82.95431879 73.98584758 86 77 C90.18844192 81.14508331 94.22670717 85.30916359 98.03125 89.8125 C100.89838676 92.99820751 103.95431879 95.98584758 107 99 C111.18844192 103.14508331 115.22670717 107.30916359 119.03125 111.8125 C121.89838676 114.99820751 124.95431879 117.98584758 128 121 C132.1388075 125.0959627 136.14716732 129.19900872 139.89453125 133.66015625 C142.88127074 136.97937138 146.05166427 140.10369777 149.21875 143.25 C150.19666504 144.22453125 150.19666504 144.22453125 151.19433594 145.21875 C152.79509273 146.81364321 154.39700897 148.40735291 156 150 C156.00358253 148.95058684 156.00358253 148.95058684 156.00723743 147.87997341 C156.06641303 130.84485998 156.14197947 113.80989791 156.23571491 96.77493954 C156.28065109 88.53690306 156.32007076 80.29890959 156.34643555 72.06079102 C156.36943329 64.87915725 156.40285112 57.69765988 156.44870156 50.51613432 C156.47260992 46.71471968 156.49135429 42.91343991 156.49761391 39.11195183 C156.50367565 35.53072743 156.52371434 31.94984804 156.55427551 28.36875153 C156.56720323 26.43425514 156.56548878 24.49967809 156.5632782 22.56513977 C156.63086886 16.29907812 156.83635544 11.48053241 160 6 C169.31550395 -3.07035911 178.23529025 0 192 0 C192 72.6 192 145.2 192 220 C178 220 178 220 174.61328125 217.76171875 C173.85402344 216.74722656 173.09476563 215.73273438 172.3125 214.6875 C171.43153007 213.57952359 170.54732527 212.47411273 169.66015625 211.37109375 C169.22590332 210.8076123 168.79165039 210.24413086 168.34423828 209.66357422 C166.18106928 206.98652489 163.72369048 204.6366274 161.25 202.25 C158.25672919 199.29045618 155.34982873 196.33304959 152.625 193.125 C149.43870588 189.38456778 145.99120031 185.95196232 142.5 182.5 C138.46701163 178.51223718 134.60597533 174.48505089 130.9375 170.15625 C128.23969415 167.15385317 125.36956181 164.33739183 122.5 161.5 C118.4670189 157.51223169 114.60597538 153.48505095 110.9375 149.15625 C108.23969397 146.15385296 105.36955962 143.33739418 102.5 140.5 C99.07155172 137.10993882 95.6773928 133.74806018 92.5625 130.0625 C88.68666792 125.48726965 84.37624385 121.35158442 80.11791992 117.13745117 C76.52304465 113.56561075 73.10882208 109.92566267 69.8359375 106.0546875 C66.83710866 102.6985514 63.60065297 99.58111793 60.3996582 96.41918945 C57.09775788 93.14209602 54.00475179 89.76796274 51 86.21484375 C47.59298393 82.44183962 43.92281189 78.9205966 40.26586914 75.39086914 C38.80764539 73.96337628 37.39916323 72.48542743 36 71 C36 70.34 36 69.68 36 69 C35.34 69 34.68 69 34 69 C34.00368717 69.71506997 34.00737434 70.43013994 34.01117325 71.1668787 C34.09956463 88.57738477 34.1657292 105.98783373 34.20724869 123.39851475 C34.22786163 131.81824878 34.25595786 140.2378329 34.30175781 148.6574707 C34.34166455 155.99723711 34.36744204 163.33689493 34.37635398 170.67676681 C34.38156228 174.56213477 34.39377686 178.44719213 34.42292023 182.3324604 C34.45015023 185.99243689 34.45842987 189.65197598 34.45243073 193.31204414 C34.45404904 195.2895784 34.4755321 197.26706544 34.49768066 199.24447632 C34.46641738 205.99674502 34.40228501 210.70598767 30 216 C23 220 23 220 0 220 C0 147.4 0 74.8 0 0 Z " fill="#DB9305" transform="translate(1341,1725)"/>
<path d="M0 0 C10.20905662 8.00938663 18.01158367 16.91151467 24.08203125 28.41796875 C24.57316406 29.34351562 25.06429688 30.2690625 25.5703125 31.22265625 C34.46648082 49.3299015 34.31273244 69.34792888 27.91210938 88.19287109 C23.97052602 98.75863306 18.19836731 107.54552926 10.08203125 115.41796875 C9.29957031 116.19785156 8.51710938 116.97773438 7.7109375 117.78125 C-8.14439504 132.87552658 -28.03134578 139.04886028 -49.51953125 138.6015625 C-71.96190567 137.82983625 -91.76119971 127.35242004 -107.10546875 111.23046875 C-122.2076338 93.3740154 -126.27420749 72.24863529 -124.91796875 49.41796875 C-122.97965439 32.09318083 -114.11011805 18.30396363 -101.91796875 6.41796875 C-101.26183594 5.7528125 -100.60570312 5.08765625 -99.9296875 4.40234375 C-73.06415124 -21.14005047 -29.36746187 -20.5148849 0 0 Z " fill="#DB9303" transform="translate(1775.91796875,2021.58203125)"/>
<path d="M0 0 C1.31444092 0.00563965 2.62888184 0.0112793 3.9831543 0.01708984 C30.66667853 0.34987196 54.23743231 9.43109818 76.1875 24.3125 C74.8111267 28.25810346 72.99728922 31.13098256 70.375 34.375 C69.37533203 35.62990234 69.37533203 35.62990234 68.35546875 36.91015625 C64.39031102 41.30397968 61.20059356 44.14291333 55.24609375 44.64453125 C49.3383194 44.57483345 44.57260312 42.38242819 39.25 40 C18.05133942 30.73758872 -5.30332538 25.95743684 -27.734375 34.4140625 C-36.71684796 38.63310283 -42.91701884 44.05670798 -46.8125 53.3125 C-48.90659157 61.74256094 -48.76019591 69.45632546 -44.40234375 77.09765625 C-32.8288925 93.2208672 -5.14009599 95.45890439 12.77734375 98.4375 C15.85611963 98.936368 18.93606505 99.42734182 22.01635742 99.91674805 C29.63494324 101.15238523 36.86786378 102.81401482 44.1875 105.3125 C45.27933594 105.68117188 46.37117188 106.04984375 47.49609375 106.4296875 C63.71091545 112.27389885 77.0481326 120.60654118 84.703125 136.44921875 C91.64244278 152.66090081 91.36293151 171.83105035 85.1875 188.3125 C84.86007813 189.20710938 84.53265625 190.10171875 84.1953125 191.0234375 C79.62239879 201.604559 70.25346812 210.89488138 60.1875 216.3125 C59.28128906 216.81136719 58.37507813 217.31023437 57.44140625 217.82421875 C54.09019879 219.51903322 50.69159592 220.9727778 47.1875 222.3125 C46.5569873 222.5595166 45.92647461 222.8065332 45.27685547 223.06103516 C32.894186 227.64216928 20.34555354 227.76616815 7.3125 227.75 C6.47374329 227.75022156 5.63498657 227.75044312 4.77081299 227.75067139 C-24.52553125 227.66838029 -51.90732385 220.93648434 -76.1875 203.875 C-76.75831299 203.47450439 -77.32912598 203.07400879 -77.91723633 202.66137695 C-79.99644646 201.1023804 -81.61045526 199.66038689 -82.921875 197.40234375 C-82.74096743 193.9457169 -80.77309972 191.99494337 -78.6875 189.3125 C-77.90117187 188.28125 -77.11484375 187.25 -76.3046875 186.1875 C-70.6141176 179.62283002 -70.6141176 179.62283002 -66.43701172 178.90332031 C-58.92819569 178.52727945 -53.41846553 180.72198334 -46.8125 184.0625 C-37.66892342 188.53038401 -28.54972046 192.57831221 -18.625 195 C-17.70332031 195.23074219 -16.78164062 195.46148438 -15.83203125 195.69921875 C3.12653917 199.54979515 25.5757857 199.06573185 42.1875 188.3125 C48.1349956 183.90854682 51.60075593 178.55143301 53.1875 171.3125 C54.31026651 159.70900547 54.31026651 159.70900547 50.55859375 148.97265625 C36.74394506 132.24551752 12.17944079 129.79476907 -7.9375 126.3125 C-32.91788722 121.95213877 -60.06755667 116.13797131 -75.8125 94.3125 C-83.61284392 81.77243757 -86.00061322 66.7436848 -83.0859375 52.30859375 C-79.90714625 39.50297534 -75.10589473 30.65331001 -65.8125 21.3125 C-64.92304688 20.37083984 -64.92304688 20.37083984 -64.015625 19.41015625 C-47.54180027 3.33724318 -21.8580213 -0.09887312 0 0 Z " fill="#026735" transform="translate(2577.8125,1726.6875)"/>
<path d="M0 0 C1.33294266 1.14325467 2.64652838 2.30955486 3.9375 3.5 C4.6078125 4.08007812 5.278125 4.66015625 5.96875 5.2578125 C16.88091802 15.28861311 24.75848687 30.70122448 26.12841797 45.57250977 C26.20417393 47.67758482 26.21567266 49.76879238 26.1875 51.875 C26.18000732 52.62031982 26.17251465 53.36563965 26.16479492 54.13354492 C25.83005131 71.33263436 18.76050746 87.45392101 6.44970703 99.5222168 C-8.62898936 113.56610069 -26.8643416 118.12445161 -46.97509766 117.58886719 C-65.15679136 116.81481613 -80.99207235 107.9044223 -93.26171875 94.8125 C-106.39936218 79.90504169 -109.9934442 61.80125152 -109.0625 42.5 C-108.70491319 39.34961491 -108.04501284 36.50929646 -107.0625 33.5 C-106.80597656 32.6440625 -106.54945312 31.788125 -106.28515625 30.90625 C-100.70079791 13.84160134 -89.03307839 1.24014036 -73.1875 -6.8125 C-49.48244417 -18.29570902 -21.20889446 -15.98937451 0 0 Z " fill="#DB9303" transform="translate(1777.0625,2223.5)"/>
<path d="M0 0 C1.29148956 -0.00137466 2.58297913 -0.00274933 3.91360474 -0.00416565 C5.34782433 -0.00062649 6.78204369 0.00300832 8.21626282 0.00672913 C9.7240753 0.00701115 11.23188792 0.00685297 12.73970032 0.00628662 C16.83651144 0.00599924 20.93329339 0.01188646 25.03009772 0.01886058 C29.31023496 0.02510391 33.59037283 0.02569869 37.87051392 0.02688599 C45.97713538 0.02999641 54.0837434 0.03820591 62.19035894 0.04823548 C71.41878796 0.05940558 80.64721762 0.06490933 89.87565172 0.06993091 C108.86069704 0.08038875 127.84572982 0.09798262 146.83076477 0.12025452 C146.9122142 2.82920218 146.97147091 5.53566715 147.01826477 8.24525452 C147.04340149 9.00580139 147.06853821 9.76634827 147.09443665 10.54994202 C147.16741991 16.19398128 146.2793556 20.43573175 142.33076477 24.76478577 C137.90503048 28.21086533 135.0683544 29.24668246 129.53315735 29.23377991 C128.45226334 29.23370438 127.37136932 29.23362885 126.25772095 29.23355103 C125.09202072 29.22838974 123.9263205 29.22322845 122.72529602 29.21791077 C121.53095444 29.21649582 120.33661285 29.21508087 119.1060791 29.21362305 C115.28511569 29.20801801 111.46421052 29.19546462 107.64326477 29.18275452 C105.05537499 29.17774017 102.46748429 29.17317715 99.8795929 29.16908264 C93.52996359 29.15804694 87.18036834 29.14130388 80.83076477 29.12025452 C80.83537374 30.04662751 80.8399827 30.97300051 80.84473133 31.92744541 C80.95573903 54.4702295 81.03789817 77.01297812 81.08982563 99.55597782 C81.11560498 110.45762917 81.15075054 121.35909994 81.20796204 132.26063538 C81.25780502 141.7626482 81.29005774 151.26453025 81.30120724 160.76667017 C81.30772445 165.79783883 81.32303635 170.82863336 81.35941505 175.85968208 C81.39338855 180.59654038 81.40381495 185.33287092 81.39630318 190.06983948 C81.39767711 191.80687771 81.40760165 193.54393385 81.42679214 195.28086662 C81.45175284 197.65689272 81.4456608 200.03093891 81.43203735 202.40701294 C81.44660156 203.09088469 81.46116577 203.77475644 81.47617131 204.47935158 C81.40516395 209.07586563 80.12135484 211.90567465 77.58697003 215.56720442 C68.83227025 223.30917381 57.98328772 220.12025452 46.83076477 220.12025452 C46.83076477 157.09025452 46.83076477 94.06025452 46.83076477 29.12025452 C25.38076477 29.12025452 3.93076477 29.12025452 -18.16923523 29.12025452 C-18.16923523 9.40931702 -18.16923523 9.40931702 -13.66923523 4.47572327 C-8.9114198 0.7710701 -5.94302946 -0.00486735 0 0 Z " fill="#DB9304" transform="translate(971.1692352294922,1724.8797454833984)"/>
<path d="M0 0 C19.11967353 3.6991443 39.54271375 24.57158035 54.0625 36.9375 C54.8198645 37.58138672 54.8198645 37.58138672 55.5925293 38.23828125 C66.00260253 47.21354451 75.95291022 56.72795171 85.70458984 66.40942383 C86.82452777 67.51774007 87.94894397 68.62154809 89.07763672 69.72094727 C101.4552031 81.78027401 111.83046322 95.23839879 112.375 113.25 C112.23285734 130.34265536 104.05707339 146.35461772 93 159 C92.31035156 159.81082031 91.62070313 160.62164063 90.91015625 161.45703125 C80.81319761 173.05118809 68.21535081 185.55431397 54 192 C51.64887665 186.35730395 50.12451184 180.67955472 48.68579102 174.74194336 C47.31548972 169.14259785 45.78624624 163.6006781 44.1875 158.0625 C43.80779053 156.7468103 43.80779053 156.7468103 43.42041016 155.40454102 C43.16050293 154.50405029 42.9005957 153.60355957 42.6328125 152.67578125 C40.9108704 146.7093664 39.23335168 140.73089481 37.5625 134.75 C37.27012451 133.70400635 36.97774902 132.6580127 36.67651367 131.58032227 C36.08121911 129.45007756 35.48608622 127.31978768 34.89111328 125.18945312 C33.42975159 119.95897941 31.9647126 114.72953613 30.5 109.5 C29.91664855 107.41667174 29.33331523 105.3333384 28.75 103.25 C28.46125 102.21875 28.1725 101.1875 27.875 100.125 C18.25 65.75 18.25 65.75 17.37475586 62.6237793 C16.7924779 60.54444731 16.2099591 58.46518275 15.62719727 56.38598633 C14.1507154 51.1169645 12.67868552 45.84676733 11.21484375 40.57421875 C8.18621273 29.6835765 5.1069288 18.81745908 1.77709961 8.0144043 C0 2.20571217 0 2.20571217 0 0 Z " fill="#FEFEFD" transform="translate(2727,2475)"/>
<path d="M0 0 C0.86233246 -0.00133942 1.72466492 -0.00267883 2.61312866 -0.00405884 C16.3658893 0.00050835 30.03518393 0.55706616 43.75 1.5625 C44.57952179 1.62135376 45.40904358 1.68020752 46.26370239 1.74084473 C55.26382667 2.39421047 64.19095193 3.3239981 73.11328125 4.68359375 C73.87534378 4.79697586 74.63740631 4.91035797 75.42256165 5.0271759 C91.7172143 7.65554119 107.48023104 15.56273868 119.9375 26.25 C121.13632813 27.24966797 121.13632813 27.24966797 122.359375 28.26953125 C142.67439483 45.77704058 155.3626908 70.20065201 163.9375 95.25 C164.54271484 97.00376953 164.54271484 97.00376953 165.16015625 98.79296875 C167.29895143 105.33200921 168.38439287 111.40773443 168.9375 118.25 C157.91070641 113.13791428 147.04933198 107.81121434 136.3203125 102.1015625 C129.88716726 98.68082126 123.41160212 95.3422977 116.9375 92 C115.6900803 91.35559633 114.44268457 90.71114626 113.1953125 90.06665039 C111.31007695 89.09260183 109.42482627 88.11858272 107.53948975 87.14472961 C89.92681374 78.04642546 72.3367733 68.90478801 54.765625 59.7265625 C51.86524248 58.21227439 48.96399522 56.69965491 46.0625 55.1875 C45.07862305 54.67461426 44.09474609 54.16172852 43.08105469 53.63330078 C41.25892594 52.68349388 39.43667733 51.73391685 37.61425781 50.78466797 C33.30141812 48.53586486 28.99228646 46.28038406 24.69140625 44.00878906 C13.31671337 38.00304799 1.89297698 32.09999423 -9.5625 26.25 C-22.44355245 19.67200393 -35.27751664 13.01301877 -48.0625 6.25 C-47.7325 5.59 -47.4025 4.93 -47.0625 4.25 C-44.0725047 3.62446545 -41.14397937 3.11878277 -38.125 2.6875 C-37.30708984 2.56181641 -36.48917969 2.43613281 -35.64648438 2.30664062 C-33.12142928 1.92778318 -30.59410548 1.58211838 -28.0625 1.25 C-27.32829834 1.14993652 -26.59409668 1.04987305 -25.83764648 0.94677734 C-17.26287996 -0.0745759 -8.6227828 0.00793113 0 0 Z " fill="#026735" transform="translate(1137.0625,2066.75)"/>
<path d="M0 0 C4.12367908 1.55983703 8.02158443 3.47157574 11.93359375 5.4921875 C12.59865433 5.83378906 13.2637149 6.17539063 13.94892883 6.52734375 C16.11320822 7.64049236 18.27547653 8.75747684 20.4375 9.875 C21.18318237 10.25948303 21.92886475 10.64396606 22.69714355 11.0401001 C32.28727709 15.98673876 41.8093857 21.03153061 51.24975586 26.25927734 C61.04185269 31.64189801 71.01252219 36.67685379 80.9631958 41.75772095 C90.08046992 46.41541189 99.16941117 51.09843924 108.125 56.0625 C117.54472784 61.28293723 127.10386784 66.21448199 136.6875 71.125 C137.45605316 71.51886902 138.22460632 71.91273804 139.01644897 72.31854248 C142.01941961 73.85732426 145.02247625 75.39593798 148.02571106 76.9342041 C163.60203865 84.91666358 179.0151939 93.2057782 194.4375 101.48046875 C201.61824704 105.3330259 208.80671024 109.17091888 216 113 C216 113.66 216 114.32 216 115 C205.84806123 119.37541187 195.80972405 123.52427435 185 126 C184.23107422 126.18191895 183.46214844 126.36383789 182.66992188 126.55126953 C151.36198259 133.70132594 116.60515544 132.99419038 88.671875 115.78125 C84.59171553 113.06114369 80.75428661 110.15250661 77 107 C75.89205078 106.09314453 75.89205078 106.09314453 74.76171875 105.16796875 C69.60223578 100.7926559 65.37514951 96.0054778 61.17578125 90.7109375 C59.23062186 88.28734573 57.21904789 85.98199647 55.125 83.6875 C49.7637292 77.71169619 44.88988704 71.36190099 40 65 C39.5148291 64.37174316 39.0296582 63.74348633 38.52978516 63.09619141 C0 13.06725611 0 13.06725611 0 0 Z " fill="#016635" transform="translate(1085,2080)"/>
<path d="M0 0 C8.17021165 5.84544555 14.48893143 12.99604924 18.85546875 22.04296875 C19.26796875 22.88730469 19.68046875 23.73164063 20.10546875 24.6015625 C25.33932488 37.41360615 24.70654435 53.07655318 19.47851562 65.77050781 C17.00277455 71.22903533 13.93112716 75.68683492 9.85546875 80.04296875 C9.30761719 80.71457031 8.75976562 81.38617187 8.1953125 82.078125 C-0.88256292 92.4328884 -16.12116903 98.24383964 -29.57421875 99.31640625 C-44.51905786 99.74153296 -58.18828301 95.56271833 -69.51953125 85.60546875 C-71.07791262 84.10176743 -72.62147099 82.5824354 -74.14453125 81.04296875 C-74.70785156 80.51316406 -75.27117188 79.98335937 -75.8515625 79.4375 C-85.61096038 69.42059821 -88.44693131 55.52419611 -88.45922852 42.07788086 C-88.2116242 27.56885401 -82.21889296 16.17859945 -72.39453125 5.73046875 C-67.44846289 1.00888156 -62.33976622 -2.12896393 -56.14453125 -4.95703125 C-55.37496094 -5.36953125 -54.60539062 -5.78203125 -53.8125 -6.20703125 C-37.00010729 -14.02927535 -15.06231772 -9.33187187 0 0 Z " fill="#FEFEFD" transform="translate(2826.14453125,2154.95703125)"/>
<path d="M0 0 C9.41474952 7.82412974 17.19362181 19.15896599 18.67700195 31.56298828 C18.81551015 34.17792318 18.84664838 36.76446815 18.81640625 39.3828125 C18.80883301 40.30489502 18.80125977 41.22697754 18.79345703 42.17700195 C18.44755502 56.53193529 12.60627533 68.96372981 2.19921875 78.89453125 C-11.63052296 89.56373642 -26.54762803 92.30439173 -43.62109375 91.0703125 C-57.76109181 88.87934926 -70.17034727 79.41685614 -78.49609375 68.1328125 C-86.78389468 55.60337761 -87.84318686 42.72983677 -86.62109375 28.0703125 C-83.82104367 14.60275455 -74.86579474 3.76590744 -63.81640625 -4.01953125 C-43.19653505 -16.34608017 -19.12438109 -14.07964867 0 0 Z " fill="#016634" transform="translate(1837.62109375,2402.9296875)"/>
<path d="M0 0 C3.49971199 -0.1173794 6.99890955 -0.18763961 10.5 -0.25 C11.48226562 -0.28351563 12.46453125 -0.31703125 13.4765625 -0.3515625 C19.85948733 -0.43666816 24.71024121 0.25060722 30 4 C34.72047129 9.08358447 35.14455171 12.44025295 35.12025452 19.17495728 C35.12110894 20.03012857 35.12196337 20.88529986 35.12284368 21.76638544 C35.12449838 24.6484771 35.11897727 27.5305113 35.11352539 30.41259766 C35.11324349 32.47197976 35.11340131 34.53136197 35.1139679 36.59074402 C35.11425576 42.19582747 35.10836079 47.80088969 35.10139394 53.40596819 C35.09515858 59.2583051 35.09455646 65.11064246 35.09336853 70.96298218 C35.09025575 82.05165965 35.08204308 93.14032731 35.07201904 104.22900045 C35.06085625 116.85032896 35.05534703 129.47165794 35.05032361 142.09299016 C35.03986043 168.06199889 35.02226201 194.0309989 35 220 C31.47932649 220.08782542 27.95893856 220.14066643 24.4375 220.1875 C23.44685547 220.21263672 22.45621094 220.23777344 21.43554688 220.26367188 C14.34294028 220.33436231 8.99000707 219.90919606 3.6875 214.75 C0.09644426 208.89790916 -0.29042508 203.03535541 -0.24050903 196.37562561 C-0.24221788 195.5325164 -0.24392673 194.68940719 -0.24568737 193.82074922 C-0.24896883 191.0093993 -0.23800077 188.19829064 -0.22705078 185.38696289 C-0.22648638 183.36625168 -0.2268038 181.34554007 -0.22793579 179.3248291 C-0.22850916 173.84810952 -0.21675728 168.3714777 -0.20278788 162.89477849 C-0.19027799 157.16792958 -0.18910981 151.44107861 -0.18673706 145.71421814 C-0.18052306 134.87360428 -0.16411329 124.03303081 -0.14403808 113.19243473 C-0.12167662 100.84910297 -0.11068502 88.50576927 -0.10064721 76.1624223 C-0.07974702 50.77492582 -0.04457256 25.38746517 0 0 Z " fill="#036836" transform="translate(2705,1730)"/>
<path d="M0 0 C2.7861728 3.2322735 3.74399992 6.06384874 4.75 10.1875 C5.09049351 11.53825458 5.43310156 12.88847716 5.77734375 14.23828125 C6.06327393 15.3667749 6.06327393 15.3667749 6.35498047 16.51806641 C7.60372173 21.32302617 8.9659633 26.09671623 10.3125 30.875 C10.92323252 33.0494636 11.53390877 35.223943 12.14453125 37.3984375 C12.45213379 38.4925293 12.75973633 39.58662109 13.07666016 40.71386719 C14.55489501 45.97485109 16.02724007 51.23748137 17.5 56.5 C18.08330312 58.58334179 18.6666365 60.66667511 19.25 62.75 C22.75 75.25 22.75 75.25 23.62524414 78.37597656 C24.2076912 80.45607498 24.79021056 82.53615316 25.37280273 84.61621094 C26.84529406 89.87387357 28.3164669 95.13189895 29.78515625 100.390625 C30.37751739 102.51044092 30.96996471 104.63023276 31.5625 106.75 C31.9951416 108.29820435 31.9951416 108.29820435 32.43652344 109.87768555 C34.3457924 116.69765899 36.29082598 123.50672164 38.25 130.3125 C40.31970788 137.50822715 42.27970782 144.71139367 44 152 C50.766111 148.1437405 56.96687848 143.92559197 63 139 C64.83009494 141.74514242 65.48366008 143.31254166 66.25390625 146.421875 C66.46853516 147.28296875 66.68316406 148.1440625 66.90429688 149.03125 C67.23010742 150.37703125 67.23010742 150.37703125 67.5625 151.75 C67.78357422 152.63171875 68.00464844 153.5134375 68.23242188 154.421875 C69.42642292 159.27002426 70.39732508 164.04316803 71 169 C66.913595 168.43679638 63.46000345 167.53324596 59.68359375 165.8828125 C58.18203735 165.22829102 58.18203735 165.22829102 56.65014648 164.56054688 C55.58997314 164.08681641 54.5297998 163.61308594 53.4375 163.125 C52.332854 162.63322266 51.22820801 162.14144531 50.09008789 161.63476562 C17.75251674 147.06348437 -17.41621864 127.77995026 -31 93 C-34.14438241 81.35625663 -32.24523218 69.012259 -28 58 C-27.53091447 56.69199238 -27.06355871 55.38336353 -26.59765625 54.07421875 C-19.72473685 35.21657829 -10.86786445 16.87812282 0 0 Z " fill="#026634" transform="translate(2737,2514)"/>
<path d="M0 0 C2.83072303 1.41536151 3.17283512 3.15822026 4.4765625 6.02734375 C4.97414063 7.11208984 5.47171875 8.19683594 5.984375 9.31445312 C6.52578125 10.51005859 7.0671875 11.70566406 7.625 12.9375 C8.497436 14.84451717 9.3723641 16.75037782 10.24749756 18.65615845 C10.86620932 20.00364979 11.48423506 21.3514563 12.10162354 22.69955444 C15.34534347 29.77562023 18.6636309 36.81597235 21.98745728 43.85467529 C23.67320737 47.426358 25.35401674 51.00036418 27.03515625 54.57421875 C29.00824411 58.76869195 30.98202296 62.96282678 32.96044922 67.15478516 C34.5044893 70.42724655 36.04297018 73.70226662 37.57739258 76.97924805 C38.41565452 78.76593807 39.25951173 80.54999958 40.10351562 82.33398438 C40.60431641 83.40583984 41.10511719 84.47769531 41.62109375 85.58203125 C42.0586499 86.51249268 42.49620605 87.4429541 42.94702148 88.40161133 C44 91 44 91 45 96 C15.63 96 -13.74 96 -44 96 C-43.0867422 91.43371101 -41.68013933 87.83711956 -39.68359375 83.70703125 C-39.35138321 83.00784073 -39.01917267 82.30865021 -38.67689514 81.58827209 C-37.96811531 80.09765798 -37.25690092 78.60819943 -36.54345703 77.11981201 C-34.69376471 73.26087609 -32.86095595 69.39393967 -31.02734375 65.52734375 C-30.6699411 64.77471252 -30.31253845 64.0220813 -29.94430542 63.24664307 C-27.37585012 57.82657089 -24.89266842 52.37516156 -22.5 46.875 C-19.90598533 40.92820569 -17.10476819 35.12640304 -14.15405273 29.34887695 C-10.6191115 22.37016835 -7.42864191 15.23743405 -4.23681641 8.09667969 C-3.82995605 7.18950195 -3.4230957 6.28232422 -3.00390625 5.34765625 C-2.64111572 4.53304932 -2.2783252 3.71844238 -1.90454102 2.87915039 C-1 1 -1 1 0 0 Z " fill="#FEFDFA" transform="translate(1203,1782)"/>
</svg>
